  0
SECTION
  2
HEADER
  9
$ACADVER
  1
AC1027
  9
$ACADMAINTVER
 70
   105
  9
$DWGCODEPAGE
  3
ANSI_1252
  9
$REQUIREDVERSIONS
160
                 0
  9
$INSBASE
 10
0.0
 20
0.0
 30
0.0
  9
$EXTMIN
 10
0.0
 20
0.0
 30
0.0
  9
$EXTMAX
 10
210.0
 20
297.0
 30
0.0
  9
$LIMMIN
 10
0.0
 20
0.0
  9
$LIMMAX
 10
210.0
 20
297.0
  9
$ORTHOMODE
 70
     0
  9
$REGENMODE
 70
     1
  9
$FILLMODE
 70
     1
  9
$QTEXTMODE
 70
     0
  9
$MIRRTEXT
 70
     1
  9
$LTSCALE
 40
1.0
  9
$ATTMODE
 70
     1
  9
$TEXTSIZE
 40
3.5
  9
$TRACEWID
 40
1.0
  9
$TEXTSTYLE
  7
STANDARD
  9
$CLAYER
  8
0
  9
$CELTYPE
  6
ByLayer
  9
$CECOLOR
 62
   256
  9
$CELTSCALE
 40
1.0
  9
$DISPSILH
 70
     0
  9
$DIMSCALE
 40
1.0
  9
$DIMASZ
 40
3.302
  9
$DIMEXO
 40
1.0
  9
$DIMDLI
 40
3.75
  9
$DIMRND
 40
0.0
  9
$DIMDLE
 40
0.0
  9
$DIMEXE
 40
1.0
  9
$DIMTP
 40
0.0
  9
$DIMTM
 40
0.0
  9
$DIMTXT
 40
3.5
  9
$DIMCEN
 40
2.5
  9
$DIMTSZ
 40
0.0
  9
$DIMTOL
 70
     0
  9
$DIMLIM
 70
     0
  9
$DIMTIH
 70
     1
  9
$DIMTOH
 70
     1
  9
$DIMSE1
 70
     0
  9
$DIMSE2
 70
     0
  9
$DIMTAD
 70
     1
  9
$DIMZIN
 70
     1
  9
$DIMBLK
  1

  9
$DIMASO
 70
     1
  9
$DIMSHO
 70
     1
  9
$DIMPOST
  1

  9
$DIMAPOST
  1

  9
$DIMALT
 70
     0
  9
$DIMALTD
 70
     3
  9
$DIMALTF
 40
0.0393700787
  9
$DIMLFAC
 40
1.0
  9
$DIMTOFL
 70
     1
  9
$DIMTVP
 40
0.0
  9
$DIMTIX
 70
     0
  9
$DIMSOXD
 70
     0
  9
$DIMSAH
 70
     0
  9
$DIMBLK1
  1

  9
$DIMBLK2
  1

  9
$DIMSTYLE
  2
ISO-25
  9
$DIMCLRD
 70
     0
  9
$DIMCLRE
 70
     0
  9
$DIMCLRT
 70
     0
  9
$DIMTFAC
 40
1.0
  9
$DIMGAP
 40
1.524
  9
$DIMJUST
 70
     0
  9
$DIMSD1
 70
     0
  9
$DIMSD2
 70
     0
  9
$DIMTOLJ
 70
     0
  9
$DIMTZIN
 70
     1
  9
$DIMALTZ
 70
     0
  9
$DIMALTTZ
 70
     0
  9
$DIMUPT
 70
     0
  9
$DIMDEC
 70
     2
  9
$DIMTDEC
 70
     2
  9
$DIMALTU
 70
     2
  9
$DIMALTTD
 70
     3
  9
$DIMTXSTY
  7
STANDARD
  9
$DIMAUNIT
 70
     0
  9
$DIMADEC
 70
     2
  9
$DIMALTRND
 40
0.0
  9
$DIMAZIN
 70
     0
  9
$DIMDSEP
 70
    44
  9
$DIMATFIT
 70
     3
  9
$DIMFRAC
 70
     0
  9
$DIMLDRBLK
  1

  9
$DIMLUNIT
 70
     2
  9
$DIMLWD
 70
    -2
  9
$DIMLWE
 70
    -2
  9
$DIMTMOVE
 70
     0
  9
$DIMFXL
 40
1.0
  9
$DIMFXLON
 70
     0
  9
$DIMJOGANG
 40
0.7853981634
  9
$DIMTFILL
 70
     0
  9
$DIMTFILLCLR
 70
     0
  9
$DIMARCSYM
 70
     0
  9
$DIMLTYPE
  6

  9
$DIMLTEX1
  6

  9
$DIMLTEX2
  6

  9
$DIMTXTDIRECTION
 70
     0
  9
$LUNITS
 70
     2
  9
$LUPREC
 70
     2
  9
$SKETCHINC
 40
1.0
  9
$FILLETRAD
 40
10.0
  9
$AUNITS
 70
     0
  9
$AUPREC
 70
     2
  9
$MENU
  1
.
  9
$ELEVATION
 40
0.0
  9
$PELEVATION
 40
0.0
  9
$THICKNESS
 40
0.0
  9
$LIMCHECK
 70
     0
  9
$CHAMFERA
 40
0.0
  9
$CHAMFERB
 40
0.0
  9
$CHAMFERC
 40
0.0
  9
$CHAMFERD
 40
0.0
  9
$SKPOLY
 70
     0
  9
$TDCREATE
 40
2458929.138780139
  9
$TDUCREATE
 40
2458928.805446805
  9
$TDUPDATE
 40
2458929.138780683
  9
$TDUUPDATE
 40
2458928.805447349
  9
$TDINDWG
 40
0.0000000116
  9
$TDUSRTIMER
 40
0.0000000116
  9
$USRTIMER
 70
     1
  9
$ANGBASE
 50
0.0
  9
$ANGDIR
 70
     0
  9
$PDMODE
 70
     0
  9
$PDSIZE
 40
-1.0
  9
$PLINEWID
 40
0.0
  9
$SPLFRAME
 70
     0
  9
$SPLINETYPE
 70
     6
  9
$SPLINESEGS
 70
     8
  9
$HANDSEED
  5
124
  9
$SURFTAB1
 70
     6
  9
$SURFTAB2
 70
     6
  9
$SURFTYPE
 70
     6
  9
$SURFU
 70
     6
  9
$SURFV
 70
     6
  9
$UCSBASE
  2

  9
$UCSNAME
  2

  9
$UCSORG
 10
0.0
 20
0.0
 30
0.0
  9
$UCSXDIR
 10
1.0
 20
0.0
 30
0.0
  9
$UCSYDIR
 10
0.0
 20
1.0
 30
0.0
  9
$UCSORTHOREF
  2

  9
$UCSORTHOVIEW
 70
     0
  9
$UCSORGTOP
 10
0.0
 20
0.0
 30
0.0
  9
$UCSORGBOTTOM
 10
0.0
 20
0.0
 30
0.0
  9
$UCSORGLEFT
 10
0.0
 20
0.0
 30
0.0
  9
$UCSORGRIGHT
 10
0.0
 20
0.0
 30
0.0
  9
$UCSORGFRONT
 10
0.0
 20
0.0
 30
0.0
  9
$UCSORGBACK
 10
0.0
 20
0.0
 30
0.0
  9
$PUCSBASE
  2

  9
$PUCSNAME
  2

  9
$PUCSORG
 10
0.0
 20
0.0
 30
0.0
  9
$PUCSXDIR
 10
1.0
 20
0.0
 30
0.0
  9
$PUCSYDIR
 10
0.0
 20
1.0
 30
0.0
  9
$PUCSORTHOREF
  2

  9
$PUCSORTHOVIEW
 70
     0
  9
$PUCSORGTOP
 10
0.0
 20
0.0
 30
0.0
  9
$PUCSORGBOTTOM
 10
0.0
 20
0.0
 30
0.0
  9
$PUCSORGLEFT
 10
0.0
 20
0.0
 30
0.0
  9
$PUCSORGRIGHT
 10
0.0
 20
0.0
 30
0.0
  9
$PUCSORGFRONT
 10
0.0
 20
0.0
 30
0.0
  9
$PUCSORGBACK
 10
0.0
 20
0.0
 30
0.0
  9
$USERI1
 70
     0
  9
$USERI2
 70
     0
  9
$USERI3
 70
     0
  9
$USERI4
 70
     0
  9
$USERI5
 70
     0
  9
$USERR1
 40
0.0
  9
$USERR2
 40
0.0
  9
$USERR3
 40
0.0
  9
$USERR4
 40
0.0
  9
$USERR5
 40
0.0
  9
$WORLDVIEW
 70
     1
  9
$SHADEDGE
 70
     3
  9
$SHADEDIF
 70
    70
  9
$TILEMODE
 70
     1
  9
$MAXACTVP
 70
    64
  9
$PINSBASE
 10
0.0
 20
0.0
 30
0.0
  9
$PLIMCHECK
 70
     0
  9
$PEXTMIN
 10
1.0000000000E+20
 20
1.0000000000E+20
 30
1.0000000000E+20
  9
$PEXTMAX
 10
-1.0000000000E+20
 20
-1.0000000000E+20
 30
-1.0000000000E+20
  9
$PLIMMIN
 10
0.0
 20
0.0
  9
$PLIMMAX
 10
420.0
 20
297.0
  9
$UNITMODE
 70
     0
  9
$VISRETAIN
 70
     1
  9
$PLINEGEN
 70
     0
  9
$PSLTSCALE
 70
     1
  9
$TREEDEPTH
 70
  3020
  9
$CMLSTYLE
  2
Standard
  9
$CMLJUST
 70
     0
  9
$CMLSCALE
 40
20.0
  9
$PROXYGRAPHICS
 70
     1
  9
$MEASUREMENT
 70
     1
  9
$CELWEIGHT
370
    -1
  9
$ENDCAPS
280
     0
  9
$JOINSTYLE
280
     0
  9
$LWDISPLAY
290
     1
  9
$INSUNITS
 70
     4
  9
$HYPERLINKBASE
  1

  9
$STYLESHEET
  1

  9
$XEDIT
290
     1
  9
$CEPSNTYPE
380
     0
  9
$PSTYLEMODE
290
     1
  9
$FINGERPRINTGUID
  2
{cb749e67-f2c0-4685-9ce8-4c509cf5aa9c}
  9
$VERSIONGUID
  2
{FAEB1C32-E019-11D5-929B-00C0DF256EC4}
  9
$EXTNAMES
290
     1
  9
$PSVPSCALE
 40
0.0
  9
$OLESTARTUP
290
     0
  9
$SORTENTS
280
   127
  9
$INDEXCTL
280
     0
  9
$HIDETEXT
280
     1
  9
$XCLIPFRAME
280
     2
  9
$HALOGAP
280
     0
  9
$OBSCOLOR
 70
   257
  9
$OBSLTYPE
280
     0
  9
$INTERSECTIONDISPLAY
280
     0
  9
$INTERSECTIONCOLOR
 70
   257
  9
$DIMASSOC
280
     2
  9
$PROJECTNAME
  1

  9
$CAMERADISPLAY
290
     0
  9
$LENSLENGTH
 40
50.0
  9
$CAMERAHEIGHT
 40
0.0
  9
$STEPSPERSEC
 40
2.0
  9
$STEPSIZE
 40
6.0
  9
$3DDWFPREC
 40
2.0
  9
$PSOLWIDTH
 40
5.0
  9
$PSOLHEIGHT
 40
80.0
  9
$LOFTANG1
 40
1.5707963268
  9
$LOFTANG2
 40
1.5707963268
  9
$LOFTMAG1
 40
0.0
  9
$LOFTMAG2
 40
0.0
  9
$LOFTPARAM
 70
     7
  9
$LOFTNORMALS
280
     1
  9
$LATITUDE
 40
37.795
  9
$LONGITUDE
 40
-122.394
  9
$NORTHDIRECTION
 40
0.0
  9
$TIMEZONE
 70
 -8000
  9
$LIGHTGLYPHDISPLAY
280
     1
  9
$TILEMODELIGHTSYNCH
280
     1
  9
$CMATERIAL
347
44
  9
$SOLIDHIST
280
     0
  9
$SHOWHIST
280
     1
  9
$DWFFRAME
280
     2
  9
$DGNFRAME
280
     2
  9
$REALWORLDSCALE
290
     1
  9
$INTERFERECOLOR
 62
   256
  9
$CSHADOW
280
     0
  9
$SHADOWPLANELOCATION
 40
0.0
  0
ENDSEC
  0
SECTION
  2
CLASSES
  0
CLASS
  1
ACDBDICTIONARYWDFLT
  2
AcDbDictionaryWithDefault
  3
ObjectDBX Classes
 90
        0
 91
        3
280
     0
281
     0
  0
CLASS
  1
VISUALSTYLE
  2
AcDbVisualStyle
  3
ObjectDBX Classes
 90
     4095
 91
        3
280
     0
281
     0
  0
CLASS
  1
MATERIAL
  2
AcDbMaterial
  3
ObjectDBX Classes
 90
     1153
 91
        3
280
     0
281
     0
  0
CLASS
  1
SCALE
  2
AcDbScale
  3
ObjectDBX Classes
 90
     1153
 91
        3
280
     0
281
     0
  0
CLASS
  1
TABLESTYLE
  2
AcDbTableStyle
  3
ObjectDBX Classes
 90
     4095
 91
        3
280
     0
281
     0
  0
CLASS
  1
MLEADERSTYLE
  2
AcDbMLeaderStyle
  3
ACDB_MLEADERSTYLE_CLASS
 90
     4095
 91
        3
280
     0
281
     0
  0
CLASS
  1
SUN
  2
AcDbSun
  3
SCENEOE
 90
     1153
 91
        3
280
     0
281
     0
  0
CLASS
  1
DICTIONARYVAR
  2
AcDbDictionaryVar
  3
ObjectDBX Classes
 90
        0
 91
        3
280
     0
281
     0
  0
CLASS
  1
CELLSTYLEMAP
  2
AcDbCellStyleMap
  3
ObjectDBX Classes
 90
     1152
 91
        3
280
     0
281
     0
  0
ENDSEC
  0
SECTION
  2
TABLES
  0
TABLE
  2
VPORT
  5
8
330
0
100
AcDbSymbolTable
 70
     1
  0
VPORT
  5
29
330
8
100
AcDbSymbolTableRecord
100
AcDbViewportTableRecord
  2
*Active
 70
     0
 10
0.0
 20
0.0
 11
1.0
 21
1.0
 12
105.0
 22
148.5
 13
0.0
 23
0.0
 14
10.0
 24
10.0
 15
10.0
 25
10.0
 16
0.0
 26
0.0
 36
1.0
 17
0.0
 27
0.0
 37
0.0
 40
297.0
 41
0.7070707071
 42
50.0
 43
0.0
 44
0.0
 50
0.0
 51
0.0
 71
     0
 72
  2000
 73
     1
 74
     3
 75
     0
 76
     0
 77
     0
 78
     0
281
     0
 65
     1
110
0.0
120
0.0
130
0.0
111
1.0
121
0.0
131
0.0
112
0.0
122
1.0
132
0.0
 79
     0
146
0.0
348
2F
 60
     3
 61
     5
292
     1
282
     1
141
0.0
142
0.0
 63
   250
361
6D
  0
ENDTAB
  0
TABLE
  2
LTYPE
  5
5
330
0
100
AcDbSymbolTable
 70
     6
  0
LTYPE
  5
14
330
5
100
AcDbSymbolTableRecord
100
AcDbLinetypeTableRecord
  2
ByBlock
 70
     0
  3

 72
    65
 73
     0
 40
0.0
  0
LTYPE
  5
15
330
5
100
AcDbSymbolTableRecord
100
AcDbLinetypeTableRecord
  2
ByLayer
 70
     0
  3

 72
    65
 73
     0
 40
0.0
  0
LTYPE
  5
16
330
5
100
AcDbSymbolTableRecord
100
AcDbLinetypeTableRecord
  2
Continuous
 70
     0
  3
Solid line
 72
    65
 73
     0
 40
0.0
  0
LTYPE
  5
6E
330
5
100
AcDbSymbolTableRecord
100
AcDbLinetypeTableRecord
  2
HIDDEN
 70
     0
  3
Hidden __ __ __ __ __ __ __ __ __ __ __ __ __ __
 72
    65
 73
     2
 40
1.905
 49
1.27
 74
     0
 49
-0.635
 74
     0
  0
LTYPE
  5
6F
330
5
100
AcDbSymbolTableRecord
100
AcDbLinetypeTableRecord
  2
PHANTOM
 70
     0
  3
Phantom ______  __  __  ______  __  __  ______
 72
    65
 73
     6
 40
12.7
 49
6.35
 74
     0
 49
-1.27
 74
     0
 49
1.27
 74
     0
 49
-1.27
 74
     0
 49
1.27
 74
     0
 49
-1.27
 74
     0
  0
LTYPE
  5
70
330
5
100
AcDbSymbolTableRecord
100
AcDbLinetypeTableRecord
  2
CENTER
 70
     0
  3
Center ____ _ ____ _ ____ _ ____ _ ____ _ ____
 72
    65
 73
     4
 40
10.16
 49
6.35
 74
     0
 49
-1.27
 74
     0
 49
1.27
 74
     0
 49
-1.27
 74
     0
  0
LTYPE
  5
71
330
5
100
AcDbSymbolTableRecord
100
AcDbLinetypeTableRecord
  2
CENTERX2
 70
     0
  3
Center (2x) ________  __  ________  __  _____
 72
    65
 73
     4
 40
20.32
 49
12.7
 74
     0
 49
-2.54
 74
     0
 49
2.54
 74
     0
 49
-2.54
 74
     0
  0
LTYPE
  5
72
330
5
100
AcDbSymbolTableRecord
100
AcDbLinetypeTableRecord
  2
DOT2
 70
     0
  3
Dot (.5x) ........................................
 72
    65
 73
     2
 40
0.635
 49
0.0
 74
     0
 49
-0.635
 74
     0
  0
ENDTAB
  0
TABLE
  2
LAYER
  5
2
330
0
100
AcDbSymbolTable
 70
     1
  0
LAYER
  5
10
330
2
100
AcDbSymbolTableRecord
100
AcDbLayerTableRecord
  2
0
 70
     0
 62
     7
  6
Continuous
370
    -3
390
F
347
46
348
0
  0
ENDTAB
  0
TABLE
  2
STYLE
  5
3
330
0
100
AcDbSymbolTable
 70
     1
  0
STYLE
  5
11
330
3
100
AcDbSymbolTableRecord
100
AcDbTextStyleTableRecord
  2
STANDARD
 70
     0
 40
0.0
 41
1.0
 50
0.0
 71
     0
 42
3.5
  3
GOTHIC.TTF
  4

1001
ACAD
1000
CENTURY GOTHIC
1071
       34
  0
ENDTAB
  0
TABLE
  2
VIEW
  5
6
330
0
100
AcDbSymbolTable
 70
     0
  0
ENDTAB
  0
TABLE
  2
UCS
  5
7
330
0
100
AcDbSymbolTable
 70
     0
  0
ENDTAB
  0
TABLE
  2
APPID
  5
9
330
0
100
AcDbSymbolTable
 70
     1
  0
APPID
  5
12
330
9
100
AcDbSymbolTableRecord
100
AcDbRegAppTableRecord
  2
ACAD
 70
     0
  0
ENDTAB
  0
TABLE
  2
DIMSTYLE
  5
A
330
0
100
AcDbSymbolTable
 70
     1
100
AcDbDimStyleTable
  0
DIMSTYLE
105
27
330
A
100
AcDbSymbolTableRecord
100
AcDbDimStyleTableRecord
  2
ISO-25
 70
     0
 41
2.5
 42
0.625
 43
3.75
 44
1.25
 73
     0
 74
     0
 77
     1
 78
     8
140
2.5
141
2.5
143
0.0393700787
147
0.625
171
     3
172
     1
178
     0
271
     2
272
     2
274
     3
278
    44
283
     0
284
     8
340
11
  0
ENDTAB
  0
TABLE
  2
BLOCK_RECORD
  5
1
330
0
100
AcDbSymbolTable
 70
     1
  0
BLOCK_RECORD
  5
1F
330
1
100
AcDbSymbolTableRecord
100
AcDbBlockTableRecord
  2
*Model_Space
340
22
 70
     0
280
     1
281
     0
  0
BLOCK_RECORD
  5
1B
330
1
100
AcDbSymbolTableRecord
100
AcDbBlockTableRecord
  2
*Paper_Space
340
1E
 70
     0
280
     1
281
     0
  0
BLOCK_RECORD
  5
23
330
1
100
AcDbSymbolTableRecord
100
AcDbBlockTableRecord
  2
*Paper_Space0
340
26
 70
     0
280
     1
281
     0
  0
ENDTAB
  0
ENDSEC
  0
SECTION
  2
BLOCKS
  0
BLOCK
  5
20
330
1F
100
AcDbEntity
  8
0
100
AcDbBlockBegin
  2
*Model_Space
 70
     0
 10
0.0
 20
0.0
 30
0.0
  3
*Model_Space
  1

  0
ENDBLK
  5
21
330
1F
100
AcDbEntity
  8
0
100
AcDbBlockEnd
  0
BLOCK
  5
1C
330
1B
100
AcDbEntity
 67
     1
  8
0
100
AcDbBlockBegin
  2
*Paper_Space
 70
     0
 10
0.0
 20
0.0
 30
0.0
  3
*Paper_Space
  1

  0
ENDBLK
  5
1D
330
1B
100
AcDbEntity
 67
     1
  8
0
100
AcDbBlockEnd
  0
BLOCK
  5
24
330
23
100
AcDbEntity
  8
0
100
AcDbBlockBegin
  2
*Paper_Space0
 70
     0
 10
0.0
 20
0.0
 30
0.0
  3
*Paper_Space0
  1

  0
ENDBLK
  5
25
330
23
100
AcDbEntity
  8
0
100
AcDbBlockEnd
  0
ENDSEC
  0
SECTION
  2
ENTITIES
  0
CIRCLE
  5
73
330
1F
100
AcDbEntity
  8
0
  6
CENTERX2
 62
     7
100
AcDbCircle
 10
76.9031158238
 20
116.8688307128
 30
0.0
 40
1.800000000002279
  0
ARC
  5
74
330
1F
100
AcDbEntity
  8
0
  6
Continuous
 62
     7
100
AcDbCircle
 10
76.9031158238
 20
116.8688307128
 30
0.0
 40
1.800000000000011
100
AcDbArc
 50
0.0
 51
90.0
  0
CIRCLE
  5
75
330
1F
100
AcDbEntity
  8
0
  6
CENTERX2
 62
     7
100
AcDbCircle
 10
76.9031158238
 20
179.7188307128
 30
0.0
 40
1.799999999999992
  0
CIRCLE
  5
76
330
1F
100
AcDbEntity
  8
0
  6
CENTERX2
 62
     7
100
AcDbCircle
 10
76.9031158238
 20
179.7188307128
 30
0.0
 40
0.6999999999999845
  0
ARC
  5
77
330
1F
100
AcDbEntity
  8
0
  6
Continuous
 62
     7
100
AcDbCircle
 10
76.9031158238
 20
179.7188307128
 30
0.0
 40
1.800000000000011
100
AcDbArc
 50
270.0
 51
332.7339555493
  0
ARC
  5
78
330
1F
100
AcDbEntity
  8
0
  6
Continuous
 62
     7
100
AcDbCircle
 10
76.9031158238
 20
179.7188307128
 30
0.0
 40
1.799999999999987
100
AcDbArc
 50
27.2660444507
 51
90.0
  0
ARC
  5
79
330
1F
100
AcDbEntity
  8
0
  6
Continuous
 62
     7
100
AcDbCircle
 10
74.8531158238
 20
210.9688307128
 30
0.0
 40
1.500000000000028
100
AcDbArc
 50
270.0
 51
0.0
  0
ARC
  5
7A
330
1F
100
AcDbEntity
  8
0
  6
Continuous
 62
     7
100
AcDbCircle
 10
74.1531158238
 20
182.5188307128
 30
0.0
 40
1.0
100
AcDbArc
 50
180.0
 51
270.0
  0
ARC
  5
7B
330
1F
100
AcDbEntity
  8
0
  6
Continuous
 62
     7
100
AcDbCircle
 10
74.1531158238
 20
176.9188307128
 30
0.0
 40
1.0
100
AcDbArc
 50
90.0
 51
180.0
  0
ARC
  5
7C
330
1F
100
AcDbEntity
  8
0
  6
Continuous
 62
     7
100
AcDbCircle
 10
79.7031158238
 20
113.4727582319
 30
0.0
 40
0.999999999999994
100
AcDbArc
 50
180.0
 51
261.9653381752
  0
ARC
  5
7D
330
1F
100
AcDbEntity
  8
0
  6
Continuous
 62
     7
100
AcDbCircle
 10
74.1775117922
 20
119.6688307128
 30
0.0
 40
0.9999999999999952
100
AcDbArc
 50
182.7891263824
 51
270.0
  0
CIRCLE
  5
7E
330
1F
100
AcDbEntity
  8
0
  6
CENTERX2
 62
     7
100
AcDbCircle
 10
135.4031158238
 20
179.7188307128
 30
0.0
 40
0.6999999999999627
  0
CIRCLE
  5
7F
330
1F
100
AcDbEntity
  8
0
  6
CENTERX2
 62
     7
100
AcDbCircle
 10
135.4031158238
 20
179.7188307128
 30
0.0
 40
1.799999999999978
  0
CIRCLE
  5
80
330
1F
100
AcDbEntity
  8
0
  6
CENTERX2
 62
     7
100
AcDbCircle
 10
135.4031158238
 20
116.8688307128
 30
0.0
 40
1.800000000002282
  0
ARC
  5
81
330
1F
100
AcDbEntity
  8
0
  6
Continuous
 62
     7
100
AcDbCircle
 10
138.1287198554
 20
119.6688307128
 30
0.0
 40
0.9999999999999952
100
AcDbArc
 50
270.0
 51
357.2108736176
  0
ARC
  5
82
330
1F
100
AcDbEntity
  8
0
  6
Continuous
 62
     7
100
AcDbCircle
 10
132.6031158238
 20
113.4727582319
 30
0.0
 40
1.0
100
AcDbArc
 50
278.0346618248
 51
0.0
  0
ARC
  5
83
330
1F
100
AcDbEntity
  8
0
  6
Continuous
 62
     7
100
AcDbCircle
 10
138.1531158238
 20
176.9188307128
 30
0.0
 40
1.0
100
AcDbArc
 50
0.0
 51
90.0
  0
ARC
  5
84
330
1F
100
AcDbEntity
  8
0
  6
Continuous
 62
     7
100
AcDbCircle
 10
138.1531158238
 20
182.5188307128
 30
0.0
 40
1.0
100
AcDbArc
 50
270.0
 51
0.0
  0
ARC
  5
85
330
1F
100
AcDbEntity
  8
0
  6
Continuous
 62
     7
100
AcDbCircle
 10
137.4531158238
 20
210.9688307128
 30
0.0
 40
1.500000000000028
100
AcDbArc
 50
180.0
 51
270.0
  0
ARC
  5
86
330
1F
100
AcDbEntity
  8
0
  6
Continuous
 62
     7
100
AcDbCircle
 10
135.4031158238
 20
179.7188307128
 30
0.0
 40
1.799999999999987
100
AcDbArc
 50
90.0
 51
152.7339555493
  0
ARC
  5
87
330
1F
100
AcDbEntity
  8
0
  6
Continuous
 62
     7
100
AcDbCircle
 10
135.4031158238
 20
179.7188307128
 30
0.0
 40
1.80000000000004
100
AcDbArc
 50
207.2660444507
 51
270.0
  0
ARC
  5
88
330
1F
100
AcDbEntity
  8
0
  6
Continuous
 62
     7
100
AcDbCircle
 10
135.4031158238
 20
116.8688307128
 30
0.0
 40
1.800000000000011
100
AcDbArc
 50
90.0
 51
180.0
  0
ARC
  5
89
330
1F
100
AcDbEntity
  8
0
  6
Continuous
 62
     7
100
AcDbCircle
 10
132.6031158238
 20
113.4727582319
 30
0.0
 40
0.5999999999999943
100
AcDbArc
 50
278.0346618248
 51
0.0
  0
ARC
  5
8A
330
1F
100
AcDbEntity
  8
0
  6
Continuous
 62
     7
100
AcDbCircle
 10
135.4031158238
 20
116.8688307128
 30
0.0
 40
2.200000000000003
100
AcDbArc
 50
90.0
 51
180.0
  0
ARC
  5
8B
330
1F
100
AcDbEntity
  8
0
  6
Continuous
 62
     7
100
AcDbCircle
 10
138.1287198554
 20
119.6688307128
 30
0.0
 40
0.5999999999999801
100
AcDbArc
 50
270.0
 51
357.2108736176
  0
ARC
  5
8C
330
1F
100
AcDbEntity
  8
0
  6
Continuous
 62
     7
100
AcDbCircle
 10
74.1775117922
 20
119.6688307128
 30
0.0
 40
0.5999999999999801
100
AcDbArc
 50
182.7891263824
 51
270.0
  0
ARC
  5
8D
330
1F
100
AcDbEntity
  8
0
  6
Continuous
 62
     7
100
AcDbCircle
 10
76.9031158238
 20
116.8688307128
 30
0.0
 40
2.200000000000003
100
AcDbArc
 50
0.0
 51
90.0
  0
ARC
  5
8E
330
1F
100
AcDbEntity
  8
0
  6
Continuous
 62
     7
100
AcDbCircle
 10
79.7031158238
 20
113.4727582319
 30
0.0
 40
0.5999999999999943
100
AcDbArc
 50
180.0
 51
261.9653381752
  0
LINE
  5
8F
330
1F
100
AcDbEntity
  8
0
  6
CENTERX2
 62
     7
100
AcDbLine
 10
106.1531158238
 20
208.7515698275
 30
0.0
 11
106.1531158238
 21
149.4697254611
 31
0.0
  0
LINE
  5
90
330
1F
100
AcDbEntity
  8
0
  6
CENTERX2
 62
     7
100
AcDbLine
 10
122.958174297
 20
179.7188307128
 30
0.0
 11
89.0919802691
 21
179.7188307128
 31
0.0
  0
LINE
  5
91
330
1F
100
AcDbEntity
  8
0
  6
Continuous
 62
     7
100
AcDbLine
 10
128.1531158238
 20
248.7188307128
 30
0.0
 11
84.1531158238
 21
248.7188307128
 31
0.0
  0
LINE
  5
92
330
1F
100
AcDbEntity
  8
0
  6
CENTERX2
 62
     7
100
AcDbLine
 10
84.1531158238
 20
248.7188307128
 30
0.0
 11
75.1531158238
 21
248.7188307128
 31
0.0
  0
LINE
  5
93
330
1F
100
AcDbEntity
  8
0
  6
CENTERX2
 62
     7
100
AcDbLine
 10
75.1531158238
 20
248.7188307128
 30
0.0
 11
71.6531158238
 21
246.7188307128
 31
0.0
  0
LINE
  5
94
330
1F
100
AcDbEntity
  8
0
  6
CENTERX2
 62
     7
100
AcDbLine
 10
71.6531158238
 20
246.7188307128
 30
0.0
 11
71.6531158238
 21
238.7188307128
 31
0.0
  0
LINE
  5
95
330
1F
100
AcDbEntity
  8
0
  6
Continuous
 62
     7
100
AcDbLine
 10
71.6531158238
 20
238.7188307128
 30
0.0
 11
71.6531158238
 21
120.7188307128
 31
0.0
  0
LINE
  5
96
330
1F
100
AcDbEntity
  8
0
  6
CENTERX2
 62
     7
100
AcDbLine
 10
128.1531158238
 20
248.7188307128
 30
0.0
 11
137.1531158238
 21
248.7188307128
 31
0.0
  0
LINE
  5
97
330
1F
100
AcDbEntity
  8
0
  6
CENTERX2
 62
     7
100
AcDbLine
 10
137.1531158238
 20
248.7188307128
 30
0.0
 11
140.6531158238
 21
246.7188307128
 31
0.0
  0
LINE
  5
98
330
1F
100
AcDbEntity
  8
0
  6
CENTERX2
 62
     7
100
AcDbLine
 10
140.6531158238
 20
246.7188307128
 30
0.0
 11
140.6531158238
 21
238.7188307128
 31
0.0
  0
LINE
  5
99
330
1F
100
AcDbEntity
  8
0
  6
Continuous
 62
     7
100
AcDbLine
 10
140.6531158238
 20
238.7188307128
 30
0.0
 11
140.6531158238
 21
120.7188307128
 31
0.0
  0
LINE
  5
9A
330
1F
100
AcDbEntity
  8
0
  6
CENTERX2
 62
     7
100
AcDbLine
 10
128.1531158238
 20
110.7188307128
 30
0.0
 11
137.1531158238
 21
110.7188307128
 31
0.0
  0
LINE
  5
9B
330
1F
100
AcDbEntity
  8
0
  6
CENTERX2
 62
     7
100
AcDbLine
 10
137.1531158238
 20
110.7188307128
 30
0.0
 11
140.6531158238
 21
112.7188307128
 31
0.0
  0
LINE
  5
9C
330
1F
100
AcDbEntity
  8
0
  6
CENTERX2
 62
     7
100
AcDbLine
 10
140.6531158238
 20
112.7188307128
 30
0.0
 11
140.6531158238
 21
120.7188307128
 31
0.0
  0
LINE
  5
9D
330
1F
100
AcDbEntity
  8
0
  6
CENTERX2
 62
     7
100
AcDbLine
 10
84.1531158238
 20
110.7188307128
 30
0.0
 11
75.1531158238
 21
110.7188307128
 31
0.0
  0
LINE
  5
9E
330
1F
100
AcDbEntity
  8
0
  6
CENTERX2
 62
     7
100
AcDbLine
 10
75.1531158238
 20
110.7188307128
 30
0.0
 11
71.6531158238
 21
112.7188307128
 31
0.0
  0
LINE
  5
9F
330
1F
100
AcDbEntity
  8
0
  6
CENTERX2
 62
     7
100
AcDbLine
 10
71.6531158238
 20
112.7188307128
 30
0.0
 11
71.6531158238
 21
120.7188307128
 31
0.0
  0
LINE
  5
A0
330
1F
100
AcDbEntity
  8
0
  6
Continuous
 62
     7
100
AcDbLine
 10
128.1531158238
 20
110.7188307128
 30
0.0
 11
84.1531158238
 21
110.7188307128
 31
0.0
  0
LINE
  5
A1
330
1F
100
AcDbEntity
  8
0
  6
Continuous
 62
     7
100
AcDbLine
 10
113.5531158238
 20
164.8688307128
 30
0.0
 11
98.7531158238
 21
164.8688307128
 31
0.0
  0
LINE
  5
A2
330
1F
100
AcDbEntity
  8
0
  6
Continuous
 62
     7
100
AcDbLine
 10
98.7531158238
 20
164.8688307128
 30
0.0
 11
98.7531158238
 21
158.2688307128
 31
0.0
  0
LINE
  5
A3
330
1F
100
AcDbEntity
  8
0
  6
Continuous
 62
     7
100
AcDbLine
 10
98.7531158238
 20
158.2688307128
 30
0.0
 11
75.9031158238
 21
158.2688307128
 31
0.0
  0
LINE
  5
A4
330
1F
100
AcDbEntity
  8
0
  6
Continuous
 62
     7
100
AcDbLine
 10
130.4031158238
 20
122.3688307128
 30
0.0
 11
130.4031158238
 21
115.3688307128
 31
0.0
  0
LINE
  5
A5
330
1F
100
AcDbEntity
  8
0
  6
CENTERX2
 62
     7
100
AcDbLine
 10
82.6431158238
 20
243.4488307128
 30
0.0
 11
129.6631158238
 21
243.4488307128
 31
0.0
  0
LINE
  5
A6
330
1F
100
AcDbEntity
  8
0
  6
CENTERX2
 62
     7
100
AcDbLine
 10
82.6431158238
 20
243.4488307128
 30
0.0
 11
82.6431158238
 21
167.4488307128
 31
0.0
  0
LINE
  5
A7
330
1F
100
AcDbEntity
  8
0
  6
CENTERX2
 62
     7
100
AcDbLine
 10
82.6431158238
 20
167.4488307128
 30
0.0
 11
129.6631158238
 21
167.4488307128
 31
0.0
  0
LINE
  5
A8
330
1F
100
AcDbEntity
  8
0
  6
Continuous
 62
     7
100
AcDbLine
 10
128.1531158238
 20
247.0688307128
 30
0.0
 11
84.1531158238
 21
247.0688307128
 31
0.0
  0
LINE
  5
A9
330
1F
100
AcDbEntity
  8
0
  6
Continuous
 62
     7
100
AcDbLine
 10
139.0031158238
 20
120.7188307128
 30
0.0
 11
139.0031158238
 21
238.7188307128
 31
0.0
  0
LINE
  5
AA
330
1F
100
AcDbEntity
  8
0
  6
Continuous
 62
     7
100
AcDbLine
 10
84.1531158238
 20
112.3688307128
 30
0.0
 11
128.1531158238
 21
112.3688307128
 31
0.0
  0
LINE
  5
AB
330
1F
100
AcDbEntity
  8
0
  6
Continuous
 62
     7
100
AcDbLine
 10
73.3031158238
 20
238.7188307128
 30
0.0
 11
73.3031158238
 21
120.7188307128
 31
0.0
  0
LINE
  5
AC
330
1F
100
AcDbEntity
  8
0
  6
CENTERX2
 62
     7
100
AcDbLine
 10
129.6631158238
 20
243.4488307128
 30
0.0
 11
129.6631158238
 21
167.4488307128
 31
0.0
  0
LINE
  5
AD
330
1F
100
AcDbEntity
  8
0
  6
CENTERX2
 62
     7
100
AcDbLine
 10
84.0171158238
 20
242.0688307128
 30
0.0
 11
128.2891158238
 21
172.3968307128
 31
0.0
  0
LINE
  5
AE
330
1F
100
AcDbEntity
  8
0
  6
Continuous
 62
     7
100
AcDbLine
 10
84.0171158238
 20
242.0688307128
 30
0.0
 11
128.2891158238
 21
242.0688307128
 31
0.0
  0
LINE
  5
AF
330
1F
100
AcDbEntity
  8
0
  6
Continuous
 62
     7
100
AcDbLine
 10
84.0171158238
 20
242.0688307128
 30
0.0
 11
84.0171158238
 21
172.3968307128
 31
0.0
  0
LINE
  5
B0
330
1F
100
AcDbEntity
  8
0
  6
Continuous
 62
     7
100
AcDbLine
 10
84.0171158238
 20
172.3968307128
 30
0.0
 11
128.2891158238
 21
172.3968307128
 31
0.0
  0
LINE
  5
B1
330
1F
100
AcDbEntity
  8
0
  6
Continuous
 62
     7
100
AcDbLine
 10
128.2891158238
 20
242.0688307128
 30
0.0
 11
128.2891158238
 21
172.3968307128
 31
0.0
  0
LINE
  5
B2
330
1F
100
AcDbEntity
  8
0
  6
CENTERX2
 62
     7
100
AcDbLine
 10
128.2891158238
 20
242.0688307128
 30
0.0
 11
84.0171158238
 21
172.3968307128
 31
0.0
  0
LINE
  5
B3
330
1F
100
AcDbEntity
  8
0
  6
CENTERX2
 62
     7
100
AcDbLine
 10
106.1531158238
 20
207.2328307128
 30
0.0
 11
67.0467942453
 21
207.2328307128
 31
0.0
  0
LINE
  5
B4
330
1F
100
AcDbEntity
  8
0
  6
Continuous
 62
     7
100
AcDbLine
 10
136.4031158238
 20
122.3688307128
 30
0.0
 11
130.4031158238
 21
122.3688307128
 31
0.0
  0
LINE
  5
B5
330
1F
100
AcDbEntity
  8
0
  6
Continuous
 62
     7
100
AcDbLine
 10
75.9031158238
 20
158.2688307128
 30
0.0
 11
75.9031158238
 21
122.3688307128
 31
0.0
  0
LINE
  5
B6
330
1F
100
AcDbEntity
  8
0
  6
Continuous
 62
     7
100
AcDbLine
 10
75.9031158238
 20
122.3688307128
 30
0.0
 11
81.9031158238
 21
122.3688307128
 31
0.0
  0
LINE
  5
B7
330
1F
100
AcDbEntity
  8
0
  6
Continuous
 62
     7
100
AcDbLine
 10
81.9031158238
 20
122.3688307128
 30
0.0
 11
81.9031158238
 21
115.3688307128
 31
0.0
  0
LINE
  5
B8
330
1F
100
AcDbEntity
  8
0
  6
Continuous
 62
     7
100
AcDbLine
 10
81.9031158238
 20
115.3688307128
 30
0.0
 11
130.4031158238
 21
115.3688307128
 31
0.0
  0
LINE
  5
B9
330
1F
100
AcDbEntity
  8
0
  6
CENTERX2
 62
     7
100
AcDbLine
 10
106.1531158238
 20
208.7515698275
 30
0.0
 11
106.1531158238
 21
134.0649022291
 31
0.0
  0
LINE
  5
BA
330
1F
100
AcDbEntity
  8
0
  6
Continuous
 62
     7
100
AcDbLine
 10
136.4031158238
 20
158.2688307128
 30
0.0
 11
136.4031158238
 21
122.3688307128
 31
0.0
  0
LINE
  5
BB
330
1F
100
AcDbEntity
  8
0
  6
Continuous
 62
     7
100
AcDbLine
 10
113.5531158238
 20
158.2688307128
 30
0.0
 11
136.4031158238
 21
158.2688307128
 31
0.0
  0
LINE
  5
BC
330
1F
100
AcDbEntity
  8
0
  6
Continuous
 62
     7
100
AcDbLine
 10
113.5531158238
 20
164.8688307128
 30
0.0
 11
113.5531158238
 21
158.2688307128
 31
0.0
  0
LINE
  5
BD
330
1F
100
AcDbEntity
  8
0
  6
CENTERX2
 62
     7
100
AcDbLine
 10
115.4313747724
 20
179.7188307128
 30
0.0
 11
99.7466155512
 21
179.7188307128
 31
0.0
  0
LINE
  5
BE
330
1F
100
AcDbEntity
  8
0
  6
CENTERX2
 62
     7
100
AcDbLine
 10
106.1531158238
 20
186.1832569363
 30
0.0
 11
106.1531158238
 21
174.1110224336
 31
0.0
  0
LINE
  5
BF
330
1F
100
AcDbEntity
  8
0
  6
Continuous
 62
     7
100
AcDbLine
 10
139.1531158238
 20
212.2188307128
 30
0.0
 11
73.1531158238
 21
212.2188307128
 31
0.0
  0
LINE
  5
C0
330
1F
100
AcDbEntity
  8
0
  6
Continuous
 62
     7
100
AcDbLine
 10
139.1531158238
 20
120.7188307128
 30
0.0
 11
139.1531158238
 21
212.2188307128
 31
0.0
  0
LINE
  5
C1
330
1F
100
AcDbEntity
  8
0
  6
Continuous
 62
     7
100
AcDbLine
 10
84.1531158238
 20
112.2188307128
 30
0.0
 11
128.1531158238
 21
112.2188307128
 31
0.0
  0
LINE
  5
C2
330
1F
100
AcDbEntity
  8
0
  6
Continuous
 62
     7
100
AcDbLine
 10
73.1531158238
 20
212.2188307128
 30
0.0
 11
73.1531158238
 21
120.7188307128
 31
0.0
  0
LINE
  5
C3
330
1F
100
AcDbEntity
  8
0
  6
Continuous
 62
     7
100
AcDbLine
 10
76.9031158238
 20
118.6688307128
 30
0.0
 11
74.1775117922
 21
118.6688307128
 31
0.0
  0
LINE
  5
C4
330
1F
100
AcDbEntity
  8
0
  6
Continuous
 62
     7
100
AcDbLine
 10
78.7031158238
 20
116.8688307128
 30
0.0
 11
78.7031158238
 21
113.4727582319
 31
0.0
  0
LINE
  5
C5
330
1F
100
AcDbEntity
  8
0
  6
Continuous
 62
     7
100
AcDbLine
 10
73.1531158238
 20
176.9188307128
 30
0.0
 11
73.1531158238
 21
182.5188307128
 31
0.0
  0
LINE
  5
C6
330
1F
100
AcDbEntity
  8
0
  6
Continuous
 62
     7
100
AcDbLine
 10
76.3531158238
 20
212.2188307128
 30
0.0
 11
73.1531158238
 21
212.2188307128
 31
0.0
  0
LINE
  5
C7
330
1F
100
AcDbEntity
  8
0
  6
Continuous
 62
     7
100
AcDbLine
 10
73.1531158238
 20
212.2188307128
 30
0.0
 11
73.1531158238
 21
209.4688307128
 31
0.0
  0
LINE
  5
C8
330
1F
100
AcDbEntity
  8
0
  6
Continuous
 62
     7
100
AcDbLine
 10
76.9031158238
 20
177.9188307128
 30
0.0
 11
74.1531158238
 21
177.9188307128
 31
0.0
  0
LINE
  5
C9
330
1F
100
AcDbEntity
  8
0
  6
Continuous
 62
     7
100
AcDbLine
 10
76.9031158238
 20
181.5188307128
 30
0.0
 11
74.1531158238
 21
181.5188307128
 31
0.0
  0
LINE
  5
CA
330
1F
100
AcDbEntity
  8
0
  6
CENTERX2
 62
     7
100
AcDbLine
 10
78.5031158238
 20
182.1073600647
 30
0.0
 11
78.5031158238
 21
177.0798145176
 31
0.0
  0
LINE
  5
CB
330
1F
100
AcDbEntity
  8
0
  6
CENTERX2
 62
     7
100
AcDbLine
 10
77.6031158238
 20
179.7188307128
 30
0.0
 11
77.6031158238
 21
180.9211581733
 31
0.0
  0
LINE
  5
CC
330
1F
100
AcDbEntity
  8
0
  6
Continuous
 62
     7
100
AcDbLine
 10
78.5031158238
 20
180.543451838
 30
0.0
 11
78.5031158238
 21
178.8942095877
 31
0.0
  0
LINE
  5
CD
330
1F
100
AcDbEntity
  8
0
  6
Continuous
 62
     7
100
AcDbLine
 10
76.3531158238
 20
212.2188307128
 30
0.0
 11
76.3531158238
 21
210.9688307128
 31
0.0
  0
LINE
  5
CE
330
1F
100
AcDbEntity
  8
0
  6
CENTERX2
 62
     7
100
AcDbLine
 10
106.1531158238
 20
206.8062332397
 30
0.0
 11
106.1531158238
 21
157.8165033019
 31
0.0
  0
LINE
  5
CF
330
1F
100
AcDbEntity
  8
0
  6
Continuous
 62
     7
100
AcDbLine
 10
73.1531158238
 20
209.4688307128
 30
0.0
 11
74.8531158238
 21
209.4688307128
 31
0.0
  0
LINE
  5
D0
330
1F
100
AcDbEntity
  8
0
  6
CENTERX2
 62
     7
100
AcDbLine
 10
134.7031158238
 20
179.7188307128
 30
0.0
 11
134.7031158238
 21
180.9211581733
 31
0.0
  0
LINE
  5
D1
330
1F
100
AcDbEntity
  8
0
  6
CENTERX2
 62
     7
100
AcDbLine
 10
133.8031158238
 20
182.1073600647
 30
0.0
 11
133.8031158238
 21
177.0798145176
 31
0.0
  0
LINE
  5
D2
330
1F
100
AcDbEntity
  8
0
  6
Continuous
 62
     7
100
AcDbLine
 10
139.1531158238
 20
209.4688307128
 30
0.0
 11
137.4531158238
 21
209.4688307128
 31
0.0
  0
LINE
  5
D3
330
1F
100
AcDbEntity
  8
0
  6
Continuous
 62
     7
100
AcDbLine
 10
135.9531158238
 20
212.2188307128
 30
0.0
 11
135.9531158238
 21
210.9688307128
 31
0.0
  0
LINE
  5
D4
330
1F
100
AcDbEntity
  8
0
  6
Continuous
 62
     7
100
AcDbLine
 10
133.8031158238
 20
180.543451838
 30
0.0
 11
133.8031158238
 21
178.8942095877
 31
0.0
  0
LINE
  5
D5
330
1F
100
AcDbEntity
  8
0
  6
Continuous
 62
     7
100
AcDbLine
 10
135.4031158238
 20
181.5188307128
 30
0.0
 11
138.1531158238
 21
181.5188307128
 31
0.0
  0
LINE
  5
D6
330
1F
100
AcDbEntity
  8
0
  6
Continuous
 62
     7
100
AcDbLine
 10
135.4031158238
 20
177.9188307128
 30
0.0
 11
138.1531158238
 21
177.9188307128
 31
0.0
  0
LINE
  5
D7
330
1F
100
AcDbEntity
  8
0
  6
Continuous
 62
     7
100
AcDbLine
 10
139.1531158238
 20
212.2188307128
 30
0.0
 11
139.1531158238
 21
209.4688307128
 31
0.0
  0
LINE
  5
D8
330
1F
100
AcDbEntity
  8
0
  6
Continuous
 62
     7
100
AcDbLine
 10
135.9531158238
 20
212.2188307128
 30
0.0
 11
139.1531158238
 21
212.2188307128
 31
0.0
  0
LINE
  5
D9
330
1F
100
AcDbEntity
  8
0
  6
Continuous
 62
     7
100
AcDbLine
 10
139.1531158238
 20
176.9188307128
 30
0.0
 11
139.1531158238
 21
182.5188307128
 31
0.0
  0
LINE
  5
DA
330
1F
100
AcDbEntity
  8
0
  6
Continuous
 62
     7
100
AcDbLine
 10
133.6031158238
 20
116.8688307128
 30
0.0
 11
133.6031158238
 21
113.4727582319
 31
0.0
  0
LINE
  5
DB
330
1F
100
AcDbEntity
  8
0
  6
Continuous
 62
     7
100
AcDbLine
 10
135.4031158238
 20
118.6688307128
 30
0.0
 11
138.1287198554
 21
118.6688307128
 31
0.0
  0
LINE
  5
DC
330
1F
100
AcDbEntity
  8
0
  6
Continuous
 62
     7
100
AcDbLine
 10
74.1775117922
 20
119.0688307128
 30
0.0
 11
76.9031158238
 21
119.0688307128
 31
0.0
  0
LINE
  5
DD
330
1F
100
AcDbEntity
  8
0
  6
Continuous
 62
     7
100
AcDbLine
 10
79.1031158238
 20
116.8688307128
 30
0.0
 11
79.1031158238
 21
113.4727582319
 31
0.0
  0
LINE
  5
DE
330
1F
100
AcDbEntity
  8
0
  6
Continuous
 62
     7
100
AcDbLine
 10
84.1531158238
 20
112.6188307128
 30
0.0
 11
128.1531158238
 21
112.6188307128
 31
0.0
  0
LINE
  5
DF
330
1F
100
AcDbEntity
  8
0
  6
Continuous
 62
     7
100
AcDbLine
 10
73.5531158238
 20
120.7188307128
 30
0.0
 11
73.5531158238
 21
176.6488307128
 31
0.0
  0
LINE
  5
E0
330
1F
100
AcDbEntity
  8
0
  6
Continuous
 62
     7
100
AcDbLine
 10
73.5531158238
 20
176.6488307128
 30
0.0
 11
138.7531158238
 21
176.6488307128
 31
0.0
  0
LINE
  5
E1
330
1F
100
AcDbEntity
  8
0
  6
CENTERX2
 62
     7
100
AcDbLine
 10
106.1531158238
 20
184.0200629923
 30
0.0
 11
106.1531158238
 21
152.9361397421
 31
0.0
  0
LINE
  5
E2
330
1F
100
AcDbEntity
  8
0
  6
Continuous
 62
     7
100
AcDbLine
 10
138.7531158238
 20
120.7188307128
 30
0.0
 11
138.7531158238
 21
176.6488307128
 31
0.0
  0
LINE
  5
E3
330
1F
100
AcDbEntity
  8
0
  6
Continuous
 62
     7
100
AcDbLine
 10
133.2031158238
 20
116.8688307128
 30
0.0
 11
133.2031158238
 21
113.4727582319
 31
0.0
  0
LINE
  5
E4
330
1F
100
AcDbEntity
  8
0
  6
Continuous
 62
     7
100
AcDbLine
 10
138.1287198554
 20
119.0688307128
 30
0.0
 11
135.4031158238
 21
119.0688307128
 31
0.0
  0
LWPOLYLINE
  5
E5
330
1F
100
AcDbEntity
  8
0
  6
Continuous
 62
     7
100
AcDbPolyline
 90
       58
 70
   128
 43
0.0
 10
84.153115943
 20
248.7188307128
 10
83.7149875735
 20
248.7172011435
 10
83.2856722342
 20
248.7122419786
 10
82.8651169633
 20
248.7038475331
 10
82.4532689184
 20
248.6919121219
 10
82.0500752567
 20
248.6763300598
 10
81.6554831359
 20
248.6569956618
 10
81.2013989258
 20
248.6292476853
 10
80.7591026121
 20
248.5959677852
 10
80.3285076878
 20
248.5569829476
 10
79.9095276459
 20
248.5121201583
 10
79.5451827048
 20
248.4669560974
 10
79.1899665398
 20
248.4168450955
 10
78.843817577
 20
248.3616640047
 10
78.5066742423
 20
248.3012896769
 10
78.1784749618
 20
248.2355989641
 10
77.8591581614
 20
248.1644687181
 10
77.5486622671
 20
248.0877757911
 10
77.2469257049
 20
248.005397035
 10
76.9538869008
 20
247.9172093017
 10
76.6694842807
 20
247.8230894432
 10
76.3936562707
 20
247.7229143115
 10
76.1263412967
 20
247.6165607586
 10
75.8674777848
 20
247.5039056364
 10
75.6170041608
 20
247.3848257968
 10
75.3748588508
 20
247.2591980919
 10
75.1409802808
 20
247.1268993737
 10
74.9047641399
 20
246.9810114581
 10
74.6774824193
 20
246.8275253203
 10
74.4590643233
 20
246.6662993684
 10
74.2494390559
 20
246.497192011
 10
74.0485358213
 20
246.3200616564
 10
73.8562838238
 20
246.1347667128
 10
73.6807758293
 20
245.9501478372
 10
73.5130243901
 20
245.7578375788
 10
73.3529679321
 20
245.5577127896
 10
73.2005448814
 20
245.3496503215
 10
73.0556936639
 20
245.1335270266
 10
72.9183527056
 20
244.9092197568
 10
72.7884604325
 20
244.676605364
 10
72.6659552706
 20
244.4355607003
 10
72.5454725766
 20
244.1738615475
 10
72.4329589054
 20
243.9026333772
 10
72.3283434611
 20
243.6217345977
 10
72.2315554479
 20
243.3310236175
 10
72.14252407
 20
243.0303588449
 10
72.0611785315
 20
242.7195986883
 10
71.9874480367
 20
242.3986015559
 10
71.9212617896
 20
242.0672258561
 10
71.8625489946
 20
241.7253299974
 10
71.8112388556
 20
241.372772388
 10
71.7672605771
 20
241.0094114364
 10
71.730543363
 20
240.6351055508
 10
71.7025112097
 20
240.2720366907
 10
71.6808117188
 20
239.8989934563
 10
71.6653855507
 20
239.5158571681
 10
71.6561733656
 20
239.1225091468
 10
71.6531158238
 20
238.7188307128
  0
LWPOLYLINE
  5
E6
330
1F
100
AcDbEntity
  8
0
  6
Continuous
 62
     7
100
AcDbPolyline
 90
       58
 70
   128
 43
0.0
 10
128.1531157046
 20
248.7188307128
 10
128.5912440741
 20
248.7172011435
 10
129.0205594134
 20
248.7122419786
 10
129.4411146843
 20
248.7038475331
 10
129.8529627293
 20
248.6919121219
 10
130.2561563909
 20
248.6763300598
 10
130.6507485117
 20
248.6569956618
 10
131.1048327219
 20
248.6292476853
 10
131.5471290355
 20
248.5959677852
 10
131.9777239598
 20
248.5569829476
 10
132.3967040017
 20
248.5121201583
 10
132.7610489429
 20
248.4669560974
 10
133.1162651078
 20
248.4168450955
 10
133.4624140707
 20
248.3616640047
 10
133.7995574053
 20
248.3012896769
 10
134.1277566858
 20
248.2355989641
 10
134.4470734862
 20
248.1644687181
 10
134.7575693805
 20
248.0877757911
 10
135.0593059427
 20
248.005397035
 10
135.3523447468
 20
247.9172093017
 10
135.6367473669
 20
247.8230894432
 10
135.9125753769
 20
247.7229143115
 10
136.1798903509
 20
247.6165607586
 10
136.4387538628
 20
247.5039056364
 10
136.6892274868
 20
247.3848257968
 10
136.9313727968
 20
247.2591980919
 10
137.1652513668
 20
247.1268993737
 10
137.4014675077
 20
246.9810114581
 10
137.6287492283
 20
246.8275253203
 10
137.8471673244
 20
246.6662993684
 10
138.0567925918
 20
246.497192011
 10
138.2576958263
 20
246.3200616564
 10
138.4499478238
 20
246.1347667128
 10
138.6254558183
 20
245.9501478372
 10
138.7932072575
 20
245.7578375788
 10
138.9532637155
 20
245.5577127896
 10
139.1056867662
 20
245.3496503215
 10
139.2505379837
 20
245.1335270266
 10
139.387878942
 20
244.9092197568
 10
139.5177712152
 20
244.676605364
 10
139.6402763771
 20
244.4355607003
 10
139.760759071
 20
244.1738615475
 10
139.8732727422
 20
243.9026333772
 10
139.9778881865
 20
243.6217345977
 10
140.0746761997
 20
243.3310236175
 10
140.1637075776
 20
243.0303588449
 10
140.2450531161
 20
242.7195986883
 10
140.318783611
 20
242.3986015559
 10
140.384969858
 20
242.0672258561
 10
140.4436826531
 20
241.7253299974
 10
140.494992792
 20
241.372772388
 10
140.5389710706
 20
241.0094114364
 10
140.5756882847
 20
240.6351055508
 10
140.6037204379
 20
240.2720366907
 10
140.6254199288
 20
239.8989934563
 10
140.6408460969
 20
239.5158571681
 10
140.650058282
 20
239.1225091468
 10
140.6531158238
 20
238.7188307128
  0
LWPOLYLINE
  5
E7
330
1F
100
AcDbEntity
  8
0
  6
Continuous
 62
     7
100
AcDbPolyline
 90
       58
 70
   128
 43
0.0
 10
128.1531157046
 20
110.7188307128
 10
128.5912440741
 20
110.7204602822
 10
129.0205594134
 20
110.7254194471
 10
129.4411146843
 20
110.7338138926
 10
129.8529627293
 20
110.7457493038
 10
130.2561563909
 20
110.7613313658
 10
130.6507485117
 20
110.7806657638
 10
131.1048327219
 20
110.8084137404
 10
131.5471290355
 20
110.8416936404
 10
131.9777239598
 20
110.880678478
 10
132.3967040017
 20
110.9255412674
 10
132.7610489429
 20
110.9707053283
 10
133.1162651078
 20
111.0208163301
 10
133.4624140707
 20
111.0759974209
 10
133.7995574053
 20
111.1363717487
 10
134.1277566858
 20
111.2020624616
 10
134.4470734862
 20
111.2731927075
 10
134.7575693805
 20
111.3498856345
 10
135.0593059427
 20
111.4322643907
 10
135.3523447468
 20
111.5204521239
 10
135.6367473669
 20
111.6145719824
 10
135.9125753769
 20
111.7147471141
 10
136.1798903509
 20
111.8211006671
 10
136.4387538628
 20
111.9337557893
 10
136.6892274868
 20
112.0528356288
 10
136.9313727968
 20
112.1784633337
 10
137.1652513668
 20
112.310762052
 10
137.4014675077
 20
112.4566499675
 10
137.6287492283
 20
112.6101361054
 10
137.8471673244
 20
112.7713620572
 10
138.0567925918
 20
112.9404694146
 10
138.2576958263
 20
113.1175997693
 10
138.4499478238
 20
113.3028947128
 10
138.6254558183
 20
113.4875135885
 10
138.7932072575
 20
113.6798238469
 10
138.9532637155
 20
113.8799486361
 10
139.1056867662
 20
114.0880111042
 10
139.2505379837
 20
114.3041343991
 10
139.387878942
 20
114.5284416689
 10
139.5177712152
 20
114.7610560616
 10
139.6402763771
 20
115.0021007253
 10
139.760759071
 20
115.2637998782
 10
139.8732727422
 20
115.5350280485
 10
139.9778881865
 20
115.8159268279
 10
140.0746761997
 20
116.1066378081
 10
140.1637075776
 20
116.4073025807
 10
140.2450531161
 20
116.7180627374
 10
140.318783611
 20
117.0390598698
 10
140.384969858
 20
117.3704355695
 10
140.4436826531
 20
117.7123314282
 10
140.494992792
 20
118.0648890376
 10
140.5389710706
 20
118.4282499893
 10
140.5756882847
 20
118.8025558749
 10
140.6037204379
 20
119.1656247349
 10
140.6254199288
 20
119.5386679693
 10
140.6408460969
 20
119.9218042575
 10
140.650058282
 20
120.3151522789
 10
140.6531158238
 20
120.7188307128
  0
LWPOLYLINE
  5
E8
330
1F
100
AcDbEntity
  8
0
  6
Continuous
 62
     7
100
AcDbPolyline
 90
       58
 70
   128
 43
0.0
 10
84.153115943
 20
110.7188307128
 10
83.7149875735
 20
110.7204602822
 10
83.2856722342
 20
110.7254194471
 10
82.8651169633
 20
110.7338138926
 10
82.4532689184
 20
110.7457493038
 10
82.0500752567
 20
110.7613313658
 10
81.6554831359
 20
110.7806657638
 10
81.2013989258
 20
110.8084137404
 10
80.7591026121
 20
110.8416936404
 10
80.3285076878
 20
110.880678478
 10
79.9095276459
 20
110.9255412674
 10
79.5451827048
 20
110.9707053283
 10
79.1899665398
 20
111.0208163301
 10
78.843817577
 20
111.0759974209
 10
78.5066742423
 20
111.1363717487
 10
78.1784749618
 20
111.2020624616
 10
77.8591581614
 20
111.2731927075
 10
77.5486622671
 20
111.3498856345
 10
77.2469257049
 20
111.4322643907
 10
76.9538869008
 20
111.5204521239
 10
76.6694842807
 20
111.6145719824
 10
76.3936562707
 20
111.7147471141
 10
76.1263412967
 20
111.8211006671
 10
75.8674777848
 20
111.9337557893
 10
75.6170041608
 20
112.0528356288
 10
75.3748588508
 20
112.1784633337
 10
75.1409802808
 20
112.310762052
 10
74.9047641399
 20
112.4566499675
 10
74.6774824193
 20
112.6101361054
 10
74.4590643233
 20
112.7713620572
 10
74.2494390559
 20
112.9404694146
 10
74.0485358213
 20
113.1175997693
 10
73.8562838238
 20
113.3028947128
 10
73.6807758293
 20
113.4875135885
 10
73.5130243901
 20
113.6798238469
 10
73.3529679321
 20
113.8799486361
 10
73.2005448814
 20
114.0880111042
 10
73.0556936639
 20
114.3041343991
 10
72.9183527056
 20
114.5284416689
 10
72.7884604325
 20
114.7610560616
 10
72.6659552706
 20
115.0021007253
 10
72.5454725766
 20
115.2637998782
 10
72.4329589054
 20
115.5350280485
 10
72.3283434611
 20
115.8159268279
 10
72.2315554479
 20
116.1066378081
 10
72.14252407
 20
116.4073025807
 10
72.0611785315
 20
116.7180627374
 10
71.9874480367
 20
117.0390598698
 10
71.9212617896
 20
117.3704355695
 10
71.8625489946
 20
117.7123314282
 10
71.8112388556
 20
118.0648890376
 10
71.7672605771
 20
118.4282499893
 10
71.730543363
 20
118.8025558749
 10
71.7025112097
 20
119.1656247349
 10
71.6808117188
 20
119.5386679693
 10
71.6653855507
 20
119.9218042575
 10
71.6561733656
 20
120.3151522789
 10
71.6531158238
 20
120.7188307128
  0
LWPOLYLINE
  5
E9
330
1F
100
AcDbEntity
  8
0
  6
Continuous
 62
     7
100
AcDbPolyline
 90
       51
 70
   128
 43
0.0
 10
84.153115943
 20
247.0688307128
 10
83.5165241336
 20
247.0652762099
 10
82.8804567025
 20
247.0537764123
 10
82.2449963026
 20
247.0330768869
 10
81.6102278476
 20
247.0018907427
 10
81.1120472773
 20
246.9688083484
 10
80.6144460871
 20
246.9269452877
 10
80.1174989372
 20
246.875170061
 10
79.6210553795
 20
246.8122248847
 10
79.2906842762
 20
246.763121056
 10
78.9612892617
 20
246.7075689235
 10
78.6333016868
 20
246.6449376184
 10
78.3071529019
 20
246.574596272
 10
77.9832575054
 20
246.4958981006
 10
77.6618390044
 20
246.4078428402
 10
77.4112208287
 20
246.331261137
 10
77.1624719074
 20
246.2474979165
 10
76.9160807822
 20
246.155993003
 10
76.6731621161
 20
246.0562795691
 10
76.4346164975
 20
245.9478421711
 10
76.2013396425
 20
245.8301644424
 10
76.0166270009
 20
245.727592999
 10
75.8358367066
 20
245.6179507178
 10
75.6593116362
 20
245.5007738973
 10
75.4873946664
 20
245.3755988358
 10
75.3204909187
 20
245.2420099493
 10
75.1606255382
 20
245.1010346269
 10
75.0170961902
 20
244.9618997251
 10
74.8805330677
 20
244.8167520392
 10
74.7509137705
 20
244.6656109034
 10
74.6282116073
 20
244.5084832981
 10
74.5123116699
 20
244.3452580633
 10
74.3910284563
 20
244.1567040572
 10
74.2783850261
 20
243.9626348714
 10
74.1745137303
 20
243.7643121705
 10
74.0794076784
 20
243.5628600991
 10
73.9922405008
 20
243.3584262989
 10
73.9124204821
 20
243.1511518673
 10
73.8394302283
 20
242.9412368441
 10
73.7727523456
 20
242.7288812694
 10
73.6860989013
 20
242.4158905653
 10
73.610871706
 20
242.0991879926
 10
73.5462323055
 20
241.7805014801
 10
73.4912374675
 20
241.4610450439
 10
73.4448883129
 20
241.1407627685
 10
73.4063550835
 20
240.8197281232
 10
73.3748101823
 20
240.4980207732
 10
73.3417271641
 20
240.0546825222
 10
73.3195134255
 20
239.6102979818
 10
73.3070244758
 20
239.164977322
 10
73.3031158238
 20
238.7188307128
  0
LWPOLYLINE
  5
EA
330
1F
100
AcDbEntity
  8
0
  6
Continuous
 62
     7
100
AcDbPolyline
 90
       52
 70
   128
 43
0.0
 10
139.0031131058
 20
238.7188307128
 10
138.9990989278
 20
239.1704414798
 10
138.9862923944
 20
239.6207140082
 10
138.9635624553
 20
240.0694756797
 10
138.9297753424
 20
240.5165538759
 10
138.8838351663
 20
240.9617817458
 10
138.8464922825
 20
241.2521941877
 10
138.8025598435
 20
241.5416033576
 10
138.7512847768
 20
241.8298945988
 10
138.6919140101
 20
242.1169532547
 10
138.623694471
 20
242.4026646685
 10
138.5458730872
 20
242.6869141837
 10
138.4708946223
 20
242.9287430877
 10
138.3871038864
 20
243.1692303401
 10
138.2934663213
 20
243.4083086461
 10
138.1898308395
 20
243.6436908001
 10
138.0763051634
 20
243.8728806149
 10
137.9797986205
 20
244.04828715
 10
137.876523469
 20
244.2193671604
 10
137.7661701074
 20
244.3859227475
 10
137.6484074702
 20
244.5477657166
 10
137.5225766815
 20
244.7048356961
 10
137.3730639035
 20
244.8737915153
 10
137.2149665141
 20
245.0350421374
 10
137.0493099544
 20
245.187539598
 10
136.8770449395
 20
245.3304497227
 10
136.6985390463
 20
245.4643949109
 10
136.5140814182
 20
245.5899200562
 10
136.3239886833
 20
245.707473099
 10
136.1285774699
 20
245.8175019799
 10
135.9154314041
 20
245.9266526983
 10
135.6980591978
 20
246.0278032452
 10
135.4774542806
 20
246.1212897934
 10
135.2546100823
 20
246.2074485154
 10
135.0302229637
 20
246.2867446159
 10
134.8040776893
 20
246.3599090068
 10
134.5354319231
 20
246.4388987377
 10
134.2646994414
 20
246.5107536776
 10
133.9920308314
 20
246.576210647
 10
133.7175713225
 20
246.6357994059
 10
133.3229580493
 20
246.7114793273
 10
132.9261417049
 20
246.7770114512
 10
132.5279793478
 20
246.8334693058
 10
132.1293111834
 20
246.8819254705
 10
131.7303146717
 20
246.9233066157
 10
131.2207800557
 20
246.9668069226
 10
130.7106354957
 20
247.0010338226
 10
130.1999612354
 20
247.0272073163
 10
129.6888277444
 20
247.0463988046
 10
129.177280328
 20
247.0592970959
 10
128.6653620119
 20
247.0665563386
 10
128.1531158238
 20
247.0688307128
  0
LWPOLYLINE
  5
EB
330
1F
100
AcDbEntity
  8
0
  6
Continuous
 62
     7
100
AcDbPolyline
 90
       51
 70
   128
 43
0.0
 10
128.1531157046
 20
112.3688307128
 10
128.789707514
 20
112.3723852157
 10
129.4257749451
 20
112.3838850133
 10
130.061235345
 20
112.4045845388
 10
130.6960038001
 20
112.435770683
 10
131.1941843703
 20
112.4688530773
 10
131.6917855606
 20
112.510716138
 10
132.1887327104
 20
112.5624913646
 10
132.6851762681
 20
112.625436541
 10
133.0155473715
 20
112.6745403697
 10
133.3449423859
 20
112.7300925022
 10
133.6729299609
 20
112.7927238072
 10
133.9990787457
 20
112.8630651537
 10
134.3229741423
 20
112.941763325
 10
134.6443926433
 20
113.0298185855
 10
134.8950108189
 20
113.1064002886
 10
135.1437597402
 20
113.1901635091
 10
135.3901508655
 20
113.2816684226
 10
135.6330695315
 20
113.3813818565
 10
135.8716151502
 20
113.4898192546
 10
136.1048920051
 20
113.6074969833
 10
136.2896046467
 20
113.7100684267
 10
136.470394941
 20
113.8197107078
 10
136.6469200114
 20
113.9368875283
 10
136.8188369813
 20
114.0620625899
 10
136.9857407289
 20
114.1956514764
 10
137.1456061095
 20
114.3366267988
 10
137.2891354574
 20
114.4757617006
 10
137.42569858
 20
114.6209093865
 10
137.5553178771
 20
114.7720505223
 10
137.6780200403
 20
114.9291781276
 10
137.7939199778
 20
115.0924033623
 10
137.9152031913
 20
115.2809573684
 10
138.0278466215
 20
115.4750265543
 10
138.1317179174
 20
115.6733492552
 10
138.2268239692
 20
115.8748013266
 10
138.3139911468
 20
116.0792351267
 10
138.3938111656
 20
116.2865095584
 10
138.4668014193
 20
116.4964245815
 10
138.533479302
 20
116.7087801563
 10
138.6201327464
 20
117.0217708603
 10
138.6953599416
 20
117.338473433
 10
138.7599993421
 20
117.6571599456
 10
138.8149941801
 20
117.9766163817
 10
138.8613433347
 20
118.2968986571
 10
138.8998765641
 20
118.6179333025
 10
138.9314214654
 20
118.9396406524
 10
138.9645044836
 20
119.3829789034
 10
138.9867182221
 20
119.8273634438
 10
138.9992071719
 20
120.2726841036
 10
139.0031158238
 20
120.7188307128
  0
LWPOLYLINE
  5
EC
330
1F
100
AcDbEntity
  8
0
  6
Continuous
 62
     7
100
AcDbPolyline
 90
       52
 70
   128
 43
0.0
 10
73.3031185418
 20
120.7188307128
 10
73.3071327198
 20
120.2672199458
 10
73.3199392532
 20
119.8169474175
 10
73.3426691923
 20
119.368185746
 10
73.3764563052
 20
118.9211075497
 10
73.4223964813
 20
118.4758796799
 10
73.4597393651
 20
118.185467238
 10
73.5036718042
 20
117.8960580681
 10
73.5549468708
 20
117.6077668269
 10
73.6143176375
 20
117.320708171
 10
73.6825371766
 20
117.0349967571
 10
73.7603585604
 20
116.7507472419
 10
73.8353370253
 20
116.508918338
 10
73.9191277613
 20
116.2684310856
 10
74.0127653263
 20
116.0293527796
 10
74.1164008082
 20
115.7939706256
 10
74.2299264843
 20
115.5647808108
 10
74.3264330271
 20
115.3893742757
 10
74.4297081786
 20
115.2182942653
 10
74.5400615402
 20
115.0517386782
 10
74.6578241774
 20
114.8898957091
 10
74.7836549662
 20
114.7328257296
 10
74.9331677441
 20
114.5638699104
 10
75.0912651335
 20
114.4026192883
 10
75.2569216932
 20
114.2501218276
 10
75.4291867082
 20
114.1072117029
 10
75.6076926013
 20
113.9732665148
 10
75.7921502294
 20
113.8477413695
 10
75.9822429643
 20
113.7301883267
 10
76.1776541777
 20
113.6201594457
 10
76.3908002435
 20
113.5110087273
 10
76.6081724499
 20
113.4098581804
 10
76.8287773671
 20
113.3163716323
 10
77.0516215653
 20
113.2302129103
 10
77.276008684
 20
113.1509168097
 10
77.5021539584
 20
113.0777524189
 10
77.7707997245
 20
112.998762688
 10
78.0415322062
 20
112.9269077481
 10
78.3142008162
 20
112.8614507787
 10
78.5886603252
 20
112.8018620198
 10
78.9832735983
 20
112.7261820983
 10
79.3800899428
 20
112.6606499744
 10
79.7782522998
 20
112.6041921198
 10
80.1769204643
 20
112.5557359552
 10
80.575916976
 20
112.5143548099
 10
81.0854515919
 20
112.470854503
 10
81.5955961519
 20
112.436627603
 10
82.1062704123
 20
112.4104541094
 10
82.6174039033
 20
112.3912626211
 10
83.1289513196
 20
112.3783643298
 10
83.6408696357
 20
112.371105087
 10
84.1531158238
 20
112.3688307128
  0
LWPOLYLINE
  5
ED
330
1F
100
AcDbEntity
  8
0
  6
Continuous
 62
     7
100
AcDbPolyline
 90
       60
 70
   128
 43
0.0
 10
128.1531157046
 20
112.2188307128
 10
128.5799209247
 20
112.2204631477
 10
128.997085244
 20
112.2253962902
 10
129.4046076133
 20
112.233683897
 10
129.8024868644
 20
112.2453797247
 10
130.1907218289
 20
112.26053753
 10
130.5693113385
 20
112.2792110695
 10
130.9174316629
 20
112.3000859742
 10
131.2569753567
 20
112.3241791412
 10
131.5879414409
 20
112.3515356284
 10
131.910328936
 20
112.3822004936
 10
132.2241368629
 20
112.4162187946
 10
132.5642365963
 20
112.4582007958
 10
132.8936469058
 20
112.5044786523
 10
133.2123664301
 20
112.5551150032
 10
133.5203938078
 20
112.6101724878
 10
133.8177135682
 20
112.6696818849
 10
134.1043214438
 20
112.7335587729
 10
134.3802956359
 20
112.8017542006
 10
134.6457186302
 20
112.8742240683
 10
134.900672912
 20
112.9509242762
 10
135.1452409668
 20
113.0318107244
 10
135.3795052802
 20
113.1168393131
 10
135.6035464123
 20
113.2059519731
 10
135.8175200593
 20
113.2990231388
 10
136.0217469879
 20
113.3960578674
 10
136.2165643836
 20
113.4970877679
 10
136.4023094319
 20
113.6021444499
 10
136.5875362171
 20
113.7165572461
 10
136.7635637975
 20
113.8354604924
 10
136.9307953153
 20
113.958890223
 10
137.0898507242
 20
114.0870043298
 10
137.2412389329
 20
114.220237518
 10
137.3854037145
 20
114.3590592036
 10
137.5166848704
 20
114.4972153103
 10
137.6421746641
 20
114.6412993981
 10
137.7622590632
 20
114.7917197375
 10
137.8773241156
 20
114.948892697
 10
137.9876625682
 20
115.1134406939
 10
138.0933214854
 20
115.2858940728
 10
138.1943099412
 20
115.4666974623
 10
138.2906370091
 20
115.656295491
 10
138.3865613376
 20
115.8648392579
 10
138.4773901576
 20
116.0840343935
 10
138.5631323936
 20
116.3143918436
 10
138.6436439099
 20
116.5563340768
 10
138.7187302871
 20
116.8100827452
 10
138.7882576641
 20
117.0758332156
 10
138.8433265791
 20
117.3133198788
 10
138.8941286861
 20
117.5598907568
 10
138.9405796879
 20
117.815668879
 10
138.9825952869
 20
118.0807772753
 10
139.0200902987
 20
118.3553247662
 10
139.052999384
 20
118.6393359469
 10
139.0812919925
 20
118.9328469752
 10
139.1070480194
 20
119.266731195
 10
139.1271461231
 20
119.6122161808
 10
139.1415485965
 20
119.9693574305
 10
139.1502177325
 20
120.3382104419
 10
139.1531158238
 20
120.7188307128
  0
LWPOLYLINE
  5
EE
330
1F
100
AcDbEntity
  8
0
  6
Continuous
 62
     7
100
AcDbPolyline
 90
       59
 70
   128
 43
0.0
 10
73.1531234532
 20
120.7188307128
 10
73.155798532
 20
120.3524271973
 10
73.163824271
 20
119.996917463
 10
73.1771594622
 20
119.6522520888
 10
73.195770527
 20
119.3183816532
 10
73.219623887
 20
118.9952567349
 10
73.2486859634
 20
118.6828279125
 10
73.2808279396
 20
118.3980045128
 10
73.3175415628
 20
118.1226067907
 10
73.3587688423
 20
117.8566162127
 10
73.4044253509
 20
117.5999344453
 10
73.4544273416
 20
117.3524392625
 10
73.5086910677
 20
117.114008438
 10
73.5671327822
 20
116.8845197458
 10
73.6296687383
 20
116.6638509596
 10
73.6962151891
 20
116.4518798533
 10
73.7666859441
 20
116.2484842979
 10
73.8395688101
 20
116.0569090706
 10
73.916040597
 20
115.8731664879
 10
73.9961074883
 20
115.6969535477
 10
74.0797756674
 20
115.5279672481
 10
74.1938212988
 20
115.3187941496
 10
74.3139649261
 20
115.1206349312
 10
74.4402200937
 20
114.9328258907
 10
74.5726817873
 20
114.7545563325
 10
74.711821856
 20
114.5849689374
 10
74.858216572
 20
114.4234516812
 10
75.0124420735
 20
114.269395134
 10
75.1611866396
 20
114.134210162
 10
75.3174391295
 20
114.0043127513
 10
75.4816581577
 20
113.8792385491
 10
75.6544785598
 20
113.7587147554
 10
75.8363590211
 20
113.6426944558
 10
76.0276872268
 20
113.531141307
 10
76.2194882087
 20
113.4287925539
 10
76.4205879965
 20
113.3304493529
 10
76.6313237757
 20
113.2360800947
 10
76.8520306723
 20
113.1456574863
 10
77.0829293733
 20
113.0592782957
 10
77.3241047287
 20
112.9770267639
 10
77.575639224
 20
112.8989469907
 10
77.8376153446
 20
112.8250830758
 10
78.1233556881
 20
112.7522716533
 10
78.420741142
 20
112.6841862636
 10
78.7298658795
 20
112.6208784664
 10
79.0507496227
 20
112.5624437369
 10
79.3833682636
 20
112.5088707074
 10
79.7277202366
 20
112.4600873575
 10
80.0838039767
 20
112.4160216667
 10
80.4516179185
 20
112.3766016143
 10
80.8311604967
 20
112.34175518
 10
81.2224301462
 20
112.3114103433
 10
81.6254253015
 20
112.2854950835
 10
82.0401443975
 20
112.2639373803
 10
82.4419020257
 20
112.2475380035
 10
82.8540792944
 20
112.2348880145
 10
83.2766748917
 20
112.2259270472
 10
83.7096875054
 20
112.2205947354
 10
84.1531158238
 20
112.2188307128
  0
LWPOLYLINE
  5
EF
330
1F
100
AcDbEntity
  8
0
  6
Continuous
 62
     7
100
AcDbPolyline
 90
       46
 70
   128
 43
0.0
 10
73.1787236481
 20
119.6201704978
 10
73.1955850674
 20
119.3212537029
 10
73.2166877528
 20
119.0309745581
 10
73.2419802597
 20
118.7492974477
 10
73.2714383897
 20
118.476186756
 10
73.3050379442
 20
118.2116068675
 10
73.3420326486
 20
117.9600393749
 10
73.3829191854
 20
117.7166326828
 10
73.4276293191
 20
117.4812873303
 10
73.4760948348
 20
117.2539037593
 10
73.5385937602
 20
116.9934519885
 10
73.6062031705
 20
116.7439748518
 10
73.6788079741
 20
116.5053043766
 10
73.756292948
 20
116.2772726038
 10
73.8384694741
 20
116.0596727472
 10
73.9252448933
 20
115.8521157229
 10
74.0166281755
 20
115.6541619932
 10
74.1126282904
 20
115.4653720204
 10
74.2132542079
 20
115.2853062669
 10
74.3185148977
 20
115.1135251948
 10
74.4284193296
 20
114.9495892666
 10
74.5430133651
 20
114.7929750114
 10
74.6844903459
 20
114.6169696406
 10
74.8335064207
 20
114.4496048485
 10
74.9906862114
 20
114.2902199199
 10
75.1566543395
 20
114.1381541393
 10
75.3048327389
 20
114.014376378
 10
75.4601747261
 20
113.8949900881
 10
75.6232244494
 20
113.779729314
 10
75.7944040972
 20
113.6685463674
 10
75.9740469942
 20
113.561410001
 10
76.1624864653
 20
113.4582889674
 10
76.3485143933
 20
113.3647102065
 10
76.5429380013
 20
113.2746470252
 10
76.7460366758
 20
113.1880732328
 10
76.9580616087
 20
113.1050045317
 10
77.1791145393
 20
113.0255519402
 10
77.4092627325
 20
112.9497564059
 10
77.6485745343
 20
112.8776544692
 10
77.8971182908
 20
112.8092826704
 10
78.1549623481
 20
112.7446775499
 10
78.4221750524
 20
112.6838756481
 10
78.6938014245
 20
112.627896806
 10
78.9745502106
 20
112.5756898237
 10
79.2643979829
 20
112.5272654582
 10
79.5633436728
 20
112.4825745389
  0
LWPOLYLINE
  5
F0
330
1F
100
AcDbEntity
  8
0
  6
Continuous
 62
     7
100
AcDbPolyline
 90
       46
 70
   128
 43
0.0
 10
139.1275079995
 20
119.6201704978
 10
139.1106465802
 20
119.3212537029
 10
139.0895438949
 20
119.0309745581
 10
139.064251388
 20
118.7492974477
 10
139.034793258
 20
118.476186756
 10
139.0011937034
 20
118.2116068675
 10
138.964198999
 20
117.9600393749
 10
138.9233124623
 20
117.7166326828
 10
138.8786023285
 20
117.4812873303
 10
138.8301368129
 20
117.2539037593
 10
138.7676378874
 20
116.9934519885
 10
138.7000284771
 20
116.7439748518
 10
138.6274236735
 20
116.5053043766
 10
138.5499386997
 20
116.2772726038
 10
138.4677621735
 20
116.0596727472
 10
138.3809867543
 20
115.8521157229
 10
138.2896034721
 20
115.6541619932
 10
138.1936033572
 20
115.4653720204
 10
138.0929774397
 20
115.2853062669
 10
137.9877167499
 20
115.1135251948
 10
137.877812318
 20
114.9495892666
 10
137.7632182825
 20
114.7929750114
 10
137.6217413017
 20
114.6169696406
 10
137.4727252269
 20
114.4496048485
 10
137.3155454363
 20
114.2902199199
 10
137.1495773081
 20
114.1381541393
 10
137.0013989087
 20
114.014376378
 10
136.8460569215
 20
113.8949900881
 10
136.6830071983
 20
113.779729314
 10
136.5118275505
 20
113.6685463674
 10
136.3321846534
 20
113.561410001
 10
136.1437451823
 20
113.4582889674
 10
135.9577172543
 20
113.3647102065
 10
135.7632936463
 20
113.2746470252
 10
135.5601949719
 20
113.1880732328
 10
135.348170039
 20
113.1050045317
 10
135.1271171083
 20
113.0255519402
 10
134.8969689151
 20
112.9497564059
 10
134.6576571133
 20
112.8776544692
 10
134.4091133568
 20
112.8092826704
 10
134.1512692995
 20
112.7446775499
 10
133.8840565952
 20
112.6838756481
 10
133.6124302232
 20
112.627896806
 10
133.3316814371
 20
112.5756898237
 10
133.0418336647
 20
112.5272654582
 10
132.7428879748
 20
112.4825745389
  0
ARC
  5
F1
330
1F
100
AcDbEntity
  8
0
  6
Continuous
 62
     7
100
AcDbCircle
 10
83.7746211457
 20
145.7022368624
 30
0.0
 40
33.08557118558849
100
AcDbArc
 50
262.7849173483
 51
270.6554706444
  0
ARC
  5
F2
330
1F
100
AcDbEntity
  8
0
  6
Continuous
 62
     7
100
AcDbCircle
 10
95.65035416
 20
120.6927223592
 30
0.0
 40
22.09723935950088
100
AcDbArc
 50
179.9323038142
 51
182.7315786832
  0
ARC
  5
F3
330
1F
100
AcDbEntity
  8
0
  6
Continuous
 62
     7
100
AcDbCircle
 10
116.6558774877
 20
120.6927223592
 30
0.0
 40
22.09723935943515
100
AcDbArc
 50
357.2684213168
 51
0.0676961858
  0
ARC
  5
F4
330
1F
100
AcDbEntity
  8
0
  6
Continuous
 62
     7
100
AcDbCircle
 10
128.5316105019
 20
145.7022368624
 30
0.0
 40
33.08557118558812
100
AcDbArc
 50
269.3445293556
 51
277.2150826517
  0
POINT
  5
F5
330
1F
100
AcDbEntity
  8
0
  6
Continuous
 62
     7
100
AcDbPoint
 10
71.6531158238
 20
179.7188307128
 30
0.0
  0
POINT
  5
F6
330
1F
100
AcDbEntity
  8
0
  6
Continuous
 62
     7
100
AcDbPoint
 10
106.1531158238
 20
248.7188307128
 30
0.0
  0
POINT
  5
F7
330
1F
100
AcDbEntity
  8
0
  6
Continuous
 62
     7
100
AcDbPoint
 10
106.1531158238
 20
110.7188307128
 30
0.0
  0
POINT
  5
F8
330
1F
100
AcDbEntity
  8
0
  6
Continuous
 62
     7
100
AcDbPoint
 10
140.6531158238
 20
179.7188307128
 30
0.0
  0
POINT
  5
F9
330
1F
100
AcDbEntity
  8
0
  6
Continuous
 62
     7
100
AcDbPoint
 10
106.1531158238
 20
115.3688307128
 30
0.0
  0
POINT
  5
FA
330
1F
100
AcDbEntity
  8
0
  6
Continuous
 62
     7
100
AcDbPoint
 10
106.1531158238
 20
164.8688307128
 30
0.0
  0
POINT
  5
FB
330
1F
100
AcDbEntity
  8
0
  6
Continuous
 62
     7
100
AcDbPoint
 10
76.9031158238
 20
116.8688307128
 30
0.0
  0
POINT
  5
FC
330
1F
100
AcDbEntity
  8
0
  6
Continuous
 62
     7
100
AcDbPoint
 10
135.4031158238
 20
179.7188307128
 30
0.0
  0
POINT
  5
FD
330
1F
100
AcDbEntity
  8
0
  6
Continuous
 62
     7
100
AcDbPoint
 10
135.4031158238
 20
116.8688307128
 30
0.0
  0
POINT
  5
FE
330
1F
100
AcDbEntity
  8
0
  6
Continuous
 62
     7
100
AcDbPoint
 10
76.9031158238
 20
242.5688307128
 30
0.0
  0
POINT
  5
FF
330
1F
100
AcDbEntity
  8
0
  6
Continuous
 62
     7
100
AcDbPoint
 10
135.4031158238
 20
242.5688307128
 30
0.0
  0
POINT
  5
100
330
1F
100
AcDbEntity
  8
0
  6
Continuous
 62
     7
100
AcDbPoint
 10
76.9031158238
 20
179.7188307128
 30
0.0
  0
POINT
  5
101
330
1F
100
AcDbEntity
  8
0
  6
Continuous
 62
     7
100
AcDbPoint
 10
73.1531158238
 20
181.5188307128
 30
0.0
  0
POINT
  5
102
330
1F
100
AcDbEntity
  8
0
  6
Continuous
 62
     7
100
AcDbPoint
 10
73.1531158238
 20
177.9188307128
 30
0.0
  0
POINT
  5
103
330
1F
100
AcDbEntity
  8
0
  6
Continuous
 62
     7
100
AcDbPoint
 10
139.1531158238
 20
177.9188307128
 30
0.0
  0
POINT
  5
104
330
1F
100
AcDbEntity
  8
0
  6
Continuous
 62
     7
100
AcDbPoint
 10
139.1531158238
 20
181.5188307128
 30
0.0
  0
POINT
  5
105
330
1F
100
AcDbEntity
  8
0
  6
Continuous
 62
     7
100
AcDbPoint
 10
106.1531158238
 20
112.6188307128
 30
0.0
  0
POINT
  5
106
330
1F
100
AcDbEntity
  8
0
  6
Continuous
 62
     7
100
AcDbPoint
 10
106.1531158238
 20
176.6488307128
 30
0.0
  0
LINE
  5
107
330
1F
100
AcDbEntity
  8
0
  6
Continuous
 62
     7
370
    25
100
AcDbLine
 10
135.4031158238
 20
119.0688307128
 30
0.0
 11
138.1287198554
 21
119.0688307128
 31
0.0
  0
ARC
  5
108
330
1F
100
AcDbEntity
  8
0
  6
Continuous
 62
     7
370
    25
100
AcDbCircle
 10
135.4031158238
 20
116.8688307128
 30
0.0
 40
2.200000000000017
100
AcDbArc
 50
90.0
 51
180.0
  0
LINE
  5
109
330
1F
100
AcDbEntity
  8
0
  6
Continuous
 62
     7
370
    25
100
AcDbLine
 10
133.2031158238
 20
113.4727582319
 30
0.0
 11
133.2031158238
 21
116.8688307128
 31
0.0
  0
LINE
  5
10A
330
1F
100
AcDbEntity
  8
0
  6
Continuous
 62
     7
370
    25
100
AcDbLine
 10
79.1031158238
 20
116.8688307128
 30
0.0
 11
79.1031158238
 21
113.4727582319
 31
0.0
  0
ARC
  5
10B
330
1F
100
AcDbEntity
  8
0
  6
Continuous
 62
     7
370
    25
100
AcDbCircle
 10
76.9031158238
 20
116.8688307128
 30
0.0
 40
2.200000000000017
100
AcDbArc
 50
0.0
 51
90.0
  0
LINE
  5
10C
330
1F
100
AcDbEntity
  8
0
  6
Continuous
 62
     7
370
    25
100
AcDbLine
 10
74.1775117922
 20
119.0688307128
 30
0.0
 11
76.9031158238
 21
119.0688307128
 31
0.0
  0
LINE
  5
10D
330
1F
100
AcDbEntity
  8
0
  6
Continuous
 62
     7
370
    25
100
AcDbLine
 10
138.7531158238
 20
176.6488307128
 30
0.0
 11
73.5531158238
 21
176.6488307128
 31
0.0
  0
LINE
  5
10E
330
1F
100
AcDbEntity
  8
0
  6
Continuous
 62
     7
370
    25
100
AcDbLine
 10
138.7531158238
 20
120.7188307128
 30
0.0
 11
138.7531158238
 21
176.6488307128
 31
0.0
  0
ARC
  5
10F
330
1F
100
AcDbEntity
  8
0
  6
Continuous
 62
     7
370
    25
100
AcDbCircle
 10
132.6031158238
 20
113.4727582319
 30
0.0
 40
0.5999999999999943
100
AcDbArc
 50
278.0346618248
 51
0.0
  0
SPLINE
  5
110
330
1F
100
AcDbEntity
  8
0
  6
Continuous
 62
     7
370
    25
100
AcDbSpline
210
0.0
220
0.0
230
1.0
 70
     8
 71
     3
 72
    16
 73
    12
 74
     0
 42
0.000000001
 43
0.00000001
 40
0.0
 40
0.0
 40
0.0
 40
0.0
 40
0.0932405024229903
 40
0.1908760015901802
 40
0.2929436340376514
 40
0.399475901353758
 40
0.5105013842658217
 40
0.6260453292498649
 40
0.7461301329486023
 40
0.8707757442894133
 40
1.0
 40
1.0
 40
1.0
 40
1.0
 10
79.619252533238
 20
112.8786480160733
 30
0.0
 10
79.75925631854408
 20
112.859862521891
 30
0.0
 10
80.04586312623245
 20
112.82140605797
 30
0.0
 10
80.48716584731324
 20
112.7740456367522
 30
0.0
 10
80.9492308696584
 20
112.7323464341283
 30
0.0
 10
81.4321948805248
 20
112.6972662987224
 30
0.0
 10
81.93602150474716
 20
112.6685400855579
 30
0.0
 10
82.46072338458565
 20
112.6462134290051
 30
0.0
 10
83.00629873228297
 20
112.6303972825201
 30
0.0
 10
83.57274977490093
 20
112.6205753573259
 30
0.0
 10
83.95734834461348
 20
112.6194192115113
 30
0.0
 10
84.15311582381729
 20
112.6188307128284
 30
0.0
  0
ARC
  5
111
330
1F
100
AcDbEntity
  8
0
  6
Continuous
 62
     7
370
    25
100
AcDbCircle
 10
79.7031158238
 20
113.4727582319
 30
0.0
 40
0.5999999999999943
100
AcDbArc
 50
180.0
 51
261.9653381752
  0
SPLINE
  5
112
330
1F
100
AcDbEntity
  8
0
  6
Continuous
 62
     7
370
    25
100
AcDbSpline
210
0.0
220
0.0
230
1.0
 70
     8
 71
     3
 72
    10
 73
     6
 74
     0
 42
0.000000001
 43
0.00000001
 40
0.0
 40
0.0
 40
0.0
 40
0.0
 40
0.3236374943243658
 40
0.6569416299767712
 40
1.0
 40
1.0
 40
1.0
 40
1.0
 10
138.7280090894508
 20
119.6396345837921
 30
0.0
 10
138.7330523257435
 20
119.7559918271168
 30
0.0
 10
138.7432894333982
 20
119.9921817569918
 30
0.0
 10
138.751501169889
 20
120.3519805942334
 30
0.0
 10
138.7525724559522
 20
120.5953772828191
 30
0.0
 10
138.7531158238173
 20
120.7188307128284
 30
0.0
  0
ARC
  5
113
330
1F
100
AcDbEntity
  8
0
  6
Continuous
 62
     7
370
    25
100
AcDbCircle
 10
138.1287198554
 20
119.6688307128
 30
0.0
 40
0.5999999999999801
100
AcDbArc
 50
270.0
 51
357.2108736176
  0
LINE
  5
114
330
1F
100
AcDbEntity
  8
0
  6
Continuous
 62
     7
370
    25
100
AcDbLine
 10
84.1531158238
 20
112.6188307128
 30
0.0
 11
128.1531158238
 21
112.6188307128
 31
0.0
  0
ARC
  5
115
330
1F
100
AcDbEntity
  8
0
  6
Continuous
 62
     7
370
    25
100
AcDbCircle
 10
74.1775117922
 20
119.6688307128
 30
0.0
 40
0.5999999999999801
100
AcDbArc
 50
182.7891263824
 51
270.0
  0
SPLINE
  5
116
330
1F
100
AcDbEntity
  8
0
  6
Continuous
 62
     7
370
    25
100
AcDbSpline
210
0.0
220
0.0
230
1.0
 70
     8
 71
     3
 72
     9
 73
     5
 74
     0
 42
0.000000001
 43
0.00000001
 40
0.0
 40
0.0
 40
0.0
 40
0.0
 40
0.510925020624509
 40
1.0
 40
1.0
 40
1.0
 40
1.0
 10
73.5531158238173
 20
120.7188307128284
 30
0.0
 10
73.55406386449766
 20
120.5349563067213
 30
0.0
 10
73.55591940228129
 20
120.1750710032332
 30
0.0
 10
73.57089726183258
 20
119.8154944695749
 30
0.0
 10
73.57822255818373
 20
119.6396345837921
 30
0.0
  0
LINE
  5
117
330
1F
100
AcDbEntity
  8
0
  6
Continuous
 62
     7
370
    25
100
AcDbLine
 10
73.5531158238
 20
176.6488307128
 30
0.0
 11
73.5531158238
 21
120.7188307128
 31
0.0
  0
SPLINE
  5
118
330
1F
100
AcDbEntity
  8
0
  6
Continuous
 62
     7
370
    25
100
AcDbSpline
210
0.0
220
0.0
230
1.0
 70
     8
 71
     3
 72
    14
 73
    10
 74
     0
 42
0.000000001
 43
0.00000001
 40
0.0
 40
0.0
 40
0.0
 40
0.0
 40
0.1653042720553035
 40
0.3230478971464044
 40
0.4732706645979821
 40
0.6160186529253836
 40
0.7513455762961967
 40
0.8793144940586
 40
1.0
 40
1.0
 40
1.0
 40
1.0
 10
128.1531158238173
 20
112.6188307128284
 30
0.0
 10
128.4035418869628
 20
112.6197941992633
 30
0.0
 10
128.8929400863194
 20
112.6216771044226
 30
0.0
 10
129.6097703451682
 20
112.6378332591812
 30
0.0
 10
130.2920964851602
 20
112.6639368916359
 30
0.0
 10
130.9399428955361
 20
112.7006838376631
 30
0.0
 10
131.5532486805431
 20
112.7483416657899
 30
0.0
 10
132.1322505486781
 20
112.8053139129841
 30
0.0
 10
132.505716022485
 20
112.8546853664281
 30
0.0
 10
132.6869791143966
 20
112.8786480160733
 30
0.0
  0
ENDSEC
  0
SECTION
  2
OBJECTS
  0
DICTIONARY
  5
C
330
0
100
AcDbDictionary
281
     1
  3
ACAD_DETAILVIEWSTYLE
350
120
  3
ACAD_GROUP
350
D
  3
ACAD_LAYOUT
350
1A
  3
ACAD_MATERIAL
350
43
  3
ACAD_MLEADERSTYLE
350
6B
  3
ACAD_MLINESTYLE
350
17
  3
ACAD_PLOTSETTINGS
350
19
  3
ACAD_PLOTSTYLENAME
350
E
  3
ACAD_SCALELIST
350
47
  3
ACAD_SECTIONVIEWSTYLE
350
121
  3
ACAD_TABLESTYLE
350
69
  3
ACAD_VISUALSTYLE
350
2A
  3
ACDB_RECOMPOSE_DATA
350
11D
  3
AcDbVariableDictionary
350
119
  0
SUN
  5
6D
330
29
100
AcDbSun
 90
        1
290
     0
 63
     7
421
 16777215
 40
1.0
291
     1
 91
  2455826
 92
 54000000
292
     0
 70
     2
 71
   256
280
     1
  0
DICTIONARY
  5
120
102
{ACAD_REACTORS
330
C
102
}
330
C
100
AcDbDictionary
281
     1
  0
DICTIONARY
  5
D
102
{ACAD_REACTORS
330
C
102
}
330
C
100
AcDbDictionary
281
     1
  0
DICTIONARY
  5
1A
102
{ACAD_REACTORS
330
C
102
}
330
C
100
AcDbDictionary
281
     1
  3
Layout1
350
1E
  3
Layout2
350
26
  3
Model
350
22
  0
DICTIONARY
  5
43
102
{ACAD_REACTORS
330
C
102
}
330
C
100
AcDbDictionary
281
     1
  3
ByBlock
350
45
  3
ByLayer
350
44
  3
Global
350
46
  0
DICTIONARY
  5
6B
102
{ACAD_REACTORS
330
C
102
}
330
C
100
AcDbDictionary
281
     1
  3
Standard
350
6C
  0
DICTIONARY
  5
17
102
{ACAD_REACTORS
330
C
102
}
330
C
100
AcDbDictionary
281
     1
  3
Standard
350
18
  0
DICTIONARY
  5
19
102
{ACAD_REACTORS
330
C
102
}
330
C
100
AcDbDictionary
281
     1
  0
ACDBDICTIONARYWDFLT
  5
E
102
{ACAD_REACTORS
330
C
102
}
330
C
100
AcDbDictionary
281
     1
  3
Normal
350
F
100
AcDbDictionaryWithDefault
340
F
  0
DICTIONARY
  5
47
102
{ACAD_REACTORS
330
C
102
}
330
C
100
AcDbDictionary
281
     1
  3
A0
350
48
  3
A1
350
49
  3
A2
350
4A
  3
A3
350
4B
  3
A4
350
4C
  3
A5
350
4D
  3
A6
350
4E
  3
A7
350
4F
  3
A8
350
50
  3
A9
350
51
  3
B0
350
52
  3
B1
350
53
  3
B2
350
54
  3
B3
350
55
  3
B4
350
56
  3
B5
350
57
  3
B6
350
58
  3
B7
350
59
  3
B8
350
5A
  3
B9
350
5B
  3
C0
350
5C
  3
C1
350
5D
  3
C2
350
5E
  3
C3
350
5F
  3
C4
350
60
  3
C5
350
61
  3
C6
350
62
  3
C7
350
63
  3
C8
350
64
  3
C9
350
65
  3
D0
350
66
  3
D1
350
67
  3
D2
350
68
  0
DICTIONARY
  5
121
102
{ACAD_REACTORS
330
C
102
}
330
C
100
AcDbDictionary
281
     1
  0
DICTIONARY
  5
69
102
{ACAD_REACTORS
330
C
102
}
330
C
100
AcDbDictionary
281
     1
  3
Standard
350
6A
  0
DICTIONARY
  5
2A
102
{ACAD_REACTORS
330
C
102
}
330
C
100
AcDbDictionary
281
     1
  3
2dWireframe
350
2F
  3
Basic
350
32
  3
Brighten
350
36
  3
ColorChange
350
3A
  3
Conceptual
350
34
  3
Dim
350
35
  3
EdgeColorOff
350
3D
  3
Facepattern
350
39
  3
Flat
350
2B
  3
FlatWithEdges
350
2C
  3
Gouraud
350
2D
  3
GouraudWithEdges
350
2E
  3
Hidden
350
31
  3
JitterOff
350
3B
  3
Linepattern
350
38
  3
OverhangOff
350
3C
  3
Realistic
350
33
  3
Shaded
350
42
  3
Shaded with edges
350
41
  3
Shades of Gray
350
3E
  3
Sketchy
350
3F
  3
Thicken
350
37
  3
Wireframe
350
30
  3
X-Ray
350
40
  0
XRECORD
  5
11D
102
{ACAD_REACTORS
330
C
102
}
330
C
100
AcDbXrecord
280
     1
 90
        1
330
6A
  0
DICTIONARY
  5
119
102
{ACAD_REACTORS
330
C
102
}
330
C
100
AcDbDictionary
281
     1
  3
CANNOSCALE
350
11A
  3
CENTEREXE
350
122
  3
CENTERLTYPEFILE
350
123
  3
CMLEADERSTYLE
350
11F
  3
CTABLESTYLE
350
11E
  0
LAYOUT
  5
1E
102
{ACAD_REACTORS
330
1A
102
}
330
1A
100
AcDbPlotSettings
  1

  2
none_device
  4

  6

 40
0.0
 41
0.0
 42
0.0
 43
0.0
 44
0.0
 45
0.0
 46
0.0
 47
0.0
 48
0.0
 49
0.0
140
0.0
141
0.0
142
1.0
143
1.0
 70
   688
 72
     1
 73
     0
 74
     5
  7

 75
    16
 76
     0
 77
     2
 78
   300
147
1.0
148
0.0
149
0.0
100
AcDbLayout
  1
Layout1
 70
     1
 71
     1
 10
0.0
 20
0.0
 11
420.0
 21
297.0
 12
0.0
 22
0.0
 32
0.0
 14
1.0000000000E+20
 24
1.0000000000E+20
 34
1.0000000000E+20
 15
-1.0000000000E+20
 25
-1.0000000000E+20
 35
-1.0000000000E+20
146
0.0
 13
0.0
 23
0.0
 33
0.0
 16
1.0
 26
0.0
 36
0.0
 17
0.0
 27
1.0
 37
0.0
 76
     0
330
1B
  0
LAYOUT
  5
26
102
{ACAD_REACTORS
330
1A
102
}
330
1A
100
AcDbPlotSettings
  1

  2
none_device
  4

  6

 40
0.0
 41
0.0
 42
0.0
 43
0.0
 44
0.0
 45
0.0
 46
0.0
 47
0.0
 48
0.0
 49
0.0
140
0.0
141
0.0
142
1.0
143
1.0
 70
   688
 72
     1
 73
     0
 74
     5
  7

 75
    16
 76
     0
 77
     2
 78
   300
147
1.0
148
0.0
149
0.0
100
AcDbLayout
  1
Layout2
 70
     1
 71
     2
 10
0.0
 20
0.0
 11
0.0
 21
0.0
 12
0.0
 22
0.0
 32
0.0
 14
0.0
 24
0.0
 34
0.0
 15
0.0
 25
0.0
 35
0.0
146
0.0
 13
0.0
 23
0.0
 33
0.0
 16
1.0
 26
0.0
 36
0.0
 17
0.0
 27
1.0
 37
0.0
 76
     0
330
23
  0
LAYOUT
  5
22
102
{ACAD_REACTORS
330
1A
102
}
330
1A
100
AcDbPlotSettings
  1

  2
none_device
  4
Letter_(8.50_x_11.00_Inches)
  6

 40
6.35
 41
6.35
 42
6.35000508
 43
6.35000508
 44
215.9
 45
279.4
 46
0.0
 47
0.0
 48
0.0
 49
0.0
140
0.0
141
0.0
142
1.0
143
1.0
 70
  1712
 72
     1
 73
     0
 74
     0
  7

 75
     0
 76
     0
 77
     2
 78
   300
147
1.0
148
0.0
149
0.0
100
AcDbLayout
  1
Model
 70
     1
 71
     0
 10
0.0
 20
0.0
 11
210.0
 21
297.0
 12
0.0
 22
0.0
 32
0.0
 14
0.0
 24
0.0
 34
0.0
 15
210.0
 25
297.0
 35
0.0
146
0.0
 13
0.0
 23
0.0
 33
0.0
 16
1.0
 26
0.0
 36
0.0
 17
0.0
 27
1.0
 37
0.0
 76
     0
330
1F
331
29
  0
MATERIAL
  5
45
102
{ACAD_REACTORS
330
43
102
}
330
43
100
AcDbMaterial
  1
ByBlock
 72
     1
 94
      127
  0
MATERIAL
  5
44
102
{ACAD_REACTORS
330
43
102
}
330
43
100
AcDbMaterial
  1
ByLayer
 72
     1
 94
      127
  0
MATERIAL
  5
46
102
{ACAD_REACTORS
330
43
102
}
330
43
100
AcDbMaterial
  1
Global
 72
     1
 94
      127
  0
MLEADERSTYLE
  5
6C
102
{ACAD_REACTORS
330
6B
102
}
330
6B
100
AcDbMLeaderStyle
179
     2
170
     2
171
     1
172
     0
 90
        2
 40
0.0
 41
0.0
173
     1
 91
-1056964608
340
14
 92
       -2
290
     1
 42
2.0
291
     1
 43
8.0
  3
Standard
341
0
 44
4.0
300

342
11
174
     1
178
     6
175
     1
176
     0
 93
-1056964608
 45
4.0
292
     0
297
     0
 46
4.0
343
0
 94
-1056964608
 47
1.0
 49
1.0
140
1.0
293
     1
141
0.0
294
     1
177
     0
142
1.0
295
     0
296
     0
143
3.75
271
     0
272
     9
273
     9
298
     0
  0
MLINESTYLE
  5
18
102
{ACAD_REACTORS
330
17
102
}
330
17
100
AcDbMlineStyle
  2
Standard
 70
     0
  3

 62
   256
 51
90.0
 52
90.0
 71
     2
 49
0.5
 62
   256
  6
BYLAYER
 49
-0.5
 62
   256
  6
BYLAYER
  0
ACDBPLACEHOLDER
  5
F
102
{ACAD_REACTORS
330
E
102
}
330
E
  0
SCALE
  5
48
102
{ACAD_REACTORS
330
47
102
}
330
47
100
AcDbScale
 70
     0
300
1:1
140
1.0
141
1.0
290
     1
  0
SCALE
  5
49
102
{ACAD_REACTORS
330
47
102
}
330
47
100
AcDbScale
 70
     0
300
1:2
140
1.0
141
2.0
290
     0
  0
SCALE
  5
4A
102
{ACAD_REACTORS
330
47
102
}
330
47
100
AcDbScale
 70
     0
300
1:4
140
1.0
141
4.0
290
     0
  0
SCALE
  5
4B
102
{ACAD_REACTORS
330
47
102
}
330
47
100
AcDbScale
 70
     0
300
1:5
140
1.0
141
5.0
290
     0
  0
SCALE
  5
4C
102
{ACAD_REACTORS
330
47
102
}
330
47
100
AcDbScale
 70
     0
300
1:8
140
1.0
141
8.0
290
     0
  0
SCALE
  5
4D
102
{ACAD_REACTORS
330
47
102
}
330
47
100
AcDbScale
 70
     0
300
1:10
140
1.0
141
10.0
290
     0
  0
SCALE
  5
4E
102
{ACAD_REACTORS
330
47
102
}
330
47
100
AcDbScale
 70
     0
300
1:16
140
1.0
141
16.0
290
     0
  0
SCALE
  5
4F
102
{ACAD_REACTORS
330
47
102
}
330
47
100
AcDbScale
 70
     0
300
1:20
140
1.0
141
20.0
290
     0
  0
SCALE
  5
50
102
{ACAD_REACTORS
330
47
102
}
330
47
100
AcDbScale
 70
     0
300
1:30
140
1.0
141
30.0
290
     0
  0
SCALE
  5
51
102
{ACAD_REACTORS
330
47
102
}
330
47
100
AcDbScale
 70
     0
300
1:40
140
1.0
141
40.0
290
     0
  0
SCALE
  5
52
102
{ACAD_REACTORS
330
47
102
}
330
47
100
AcDbScale
 70
     0
300
1:50
140
1.0
141
50.0
290
     0
  0
SCALE
  5
53
102
{ACAD_REACTORS
330
47
102
}
330
47
100
AcDbScale
 70
     0
300
1:100
140
1.0
141
100.0
290
     0
  0
SCALE
  5
54
102
{ACAD_REACTORS
330
47
102
}
330
47
100
AcDbScale
 70
     0
300
2:1
140
2.0
141
1.0
290
     0
  0
SCALE
  5
55
102
{ACAD_REACTORS
330
47
102
}
330
47
100
AcDbScale
 70
     0
300
4:1
140
4.0
141
1.0
290
     0
  0
SCALE
  5
56
102
{ACAD_REACTORS
330
47
102
}
330
47
100
AcDbScale
 70
     0
300
8:1
140
8.0
141
1.0
290
     0
  0
SCALE
  5
57
102
{ACAD_REACTORS
330
47
102
}
330
47
100
AcDbScale
 70
     0
300
10:1
140
10.0
141
1.0
290
     0
  0
SCALE
  5
58
102
{ACAD_REACTORS
330
47
102
}
330
47
100
AcDbScale
 70
     0
300
100:1
140
100.0
141
1.0
290
     0
  0
SCALE
  5
59
102
{ACAD_REACTORS
330
47
102
}
330
47
100
AcDbScale
 70
     0
300
1/128" = 1'-0"
140
0.0078125
141
12.0
290
     0
  0
SCALE
  5
5A
102
{ACAD_REACTORS
330
47
102
}
330
47
100
AcDbScale
 70
     0
300
1/64" = 1'-0"
140
0.015625
141
12.0
290
     0
  0
SCALE
  5
5B
102
{ACAD_REACTORS
330
47
102
}
330
47
100
AcDbScale
 70
     0
300
1/32" = 1'-0"
140
0.03125
141
12.0
290
     0
  0
SCALE
  5
5C
102
{ACAD_REACTORS
330
47
102
}
330
47
100
AcDbScale
 70
     0
300
1/16" = 1'-0"
140
0.0625
141
12.0
290
     0
  0
SCALE
  5
5D
102
{ACAD_REACTORS
330
47
102
}
330
47
100
AcDbScale
 70
     0
300
3/32" = 1'-0"
140
0.09375
141
12.0
290
     0
  0
SCALE
  5
5E
102
{ACAD_REACTORS
330
47
102
}
330
47
100
AcDbScale
 70
     0
300
1/8" = 1'-0"
140
0.125
141
12.0
290
     0
  0
SCALE
  5
5F
102
{ACAD_REACTORS
330
47
102
}
330
47
100
AcDbScale
 70
     0
300
3/16" = 1'-0"
140
0.1875
141
12.0
290
     0
  0
SCALE
  5
60
102
{ACAD_REACTORS
330
47
102
}
330
47
100
AcDbScale
 70
     0
300
1/4" = 1'-0"
140
0.25
141
12.0
290
     0
  0
SCALE
  5
61
102
{ACAD_REACTORS
330
47
102
}
330
47
100
AcDbScale
 70
     0
300
3/8" = 1'-0"
140
0.375
141
12.0
290
     0
  0
SCALE
  5
62
102
{ACAD_REACTORS
330
47
102
}
330
47
100
AcDbScale
 70
     0
300
1/2" = 1'-0"
140
0.5
141
12.0
290
     0
  0
SCALE
  5
63
102
{ACAD_REACTORS
330
47
102
}
330
47
100
AcDbScale
 70
     0
300
3/4" = 1'-0"
140
0.75
141
12.0
290
     0
  0
SCALE
  5
64
102
{ACAD_REACTORS
330
47
102
}
330
47
100
AcDbScale
 70
     0
300
1" = 1'-0"
140
1.0
141
12.0
290
     0
  0
SCALE
  5
65
102
{ACAD_REACTORS
330
47
102
}
330
47
100
AcDbScale
 70
     0
300
1-1/2" = 1'-0"
140
1.5
141
12.0
290
     0
  0
SCALE
  5
66
102
{ACAD_REACTORS
330
47
102
}
330
47
100
AcDbScale
 70
     0
300
3" = 1'-0"
140
3.0
141
12.0
290
     0
  0
SCALE
  5
67
102
{ACAD_REACTORS
330
47
102
}
330
47
100
AcDbScale
 70
     0
300
6" = 1'-0"
140
6.0
141
12.0
290
     0
  0
SCALE
  5
68
102
{ACAD_REACTORS
330
47
102
}
330
47
100
AcDbScale
 70
     0
300
1'-0" = 1'-0"
140
12.0
141
12.0
290
     0
  0
TABLESTYLE
  5
6A
102
{ACAD_REACTORS
330
69
102
}
102
{ACAD_XDICTIONARY
360
11B
102
}
330
69
100
AcDbTableStyle
  3
Standard
 70
     0
 71
     0
 40
0.06
 41
0.06
280
     0
281
     0
  7
STANDARD
140
4.5
170
     2
 62
     0
 63
   257
283
     0
 90
        4
 91
        0
  1

274
    -2
284
     1
 64
     0
275
    -2
285
     1
 65
     0
276
    -2
286
     1
 66
     0
277
    -2
287
     1
 67
     0
278
    -2
288
     1
 68
     0
279
    -2
289
     1
 69
     0
  7
STANDARD
140
6.0
170
     5
 62
     0
 63
   257
283
     0
 90
        4
 91
        0
  1

274
    -2
284
     1
 64
     0
275
    -2
285
     1
 65
     0
276
    -2
286
     1
 66
     0
277
    -2
287
     1
 67
     0
278
    -2
288
     1
 68
     0
279
    -2
289
     1
 69
     0
  7
STANDARD
140
4.5
170
     5
 62
     0
 63
   257
283
     0
 90
        4
 91
        0
  1

274
    -2
284
     1
 64
     0
275
    -2
285
     1
 65
     0
276
    -2
286
     1
 66
     0
277
    -2
287
     1
 67
     0
278
    -2
288
     1
 68
     0
279
    -2
289
     1
 69
     0
  0
VISUALSTYLE
  5
2F
102
{ACAD_REACTORS
330
2A
102
}
330
2A
100
AcDbVisualStyle
  2
2dWireframe
 70
     4
177
     3
291
     0
 70
    58
 90
        0
176
     1
 90
        2
176
     1
 90
        0
176
     1
 90
        0
176
     1
 40
0.6
176
     1
 40
30.0
176
     1
 62
     7
420
 16777215
176
     1
 90
        1
176
     1
 90
        4
176
     1
 62
     7
176
     1
 62
   257
176
     1
 90
        1
176
     1
 90
        1
176
     1
 40
1.0
176
     1
 90
        0
176
     1
 62
   257
176
     1
 40
1.0
176
     1
 90
        1
176
     1
 90
        6
176
     1
 90
        2
176
     1
 62
     7
176
     1
 90
        5
176
     1
 90
        0
176
     1
 90
        0
176
     1
290
     0
176
     1
 90
        1
176
     1
 40
0.0
176
     1
 90
        0
176
     1
290
     1
176
     1
290
     1
176
     1
290
     0
176
     1
290
     0
176
     1
290
     0
176
     1
290
     0
176
     1
290
     0
176
     1
290
     0
176
     1
290
     0
176
     1
 90
       50
176
     1
 40
0.0
176
     1
 40
1.0
176
     1
 90
        0
176
     1
 62
    18
420
        0
176
     1
 90
       50
176
     1
 90
        3
176
     1
 62
     5
420
      255
176
     1
290
     0
176
     1
 90
       50
176
     1
 90
       50
176
     1
 90
       50
176
     1
290
     0
176
     1
 90
       50
176
     1
 62
   256
176
     0
 40
1.0
176
     0
 90
        2
176
     1
  1
strokes_ogs.tif
176
     1
290
     0
176
     1
 40
1.0
176
     1
 40
1.0
176
     1
  0
VISUALSTYLE
  5
32
102
{ACAD_REACTORS
330
2A
102
}
330
2A
100
AcDbVisualStyle
  2
Basic
 70
     7
177
     3
291
     1
 70
    58
 90
        1
176
     1
 90
        0
176
     1
 90
        1
176
     1
 90
        0
176
     1
 40
0.6
176
     1
 40
30.0
176
     1
 62
     7
420
 16777215
176
     1
 90
        0
176
     1
 90
        4
176
     1
 62
     7
176
     1
 62
   257
176
     1
 90
        1
176
     1
 90
        1
176
     1
 40
1.0
176
     1
 90
        8
176
     1
 62
     7
176
     1
 40
1.0
176
     1
 90
        1
176
     1
 90
        6
176
     1
 90
        2
176
     1
 62
     7
176
     1
 90
        5
176
     1
 90
        0
176
     1
 90
        0
176
     1
290
     0
176
     1
 90
        1
176
     1
 40
0.0
176
     1
 90
        0
176
     1
290
     0
176
     1
290
     1
176
     1
290
     1
176
     1
290
     0
176
     1
290
     0
176
     1
290
     0
176
     1
290
     0
176
     1
290
     0
176
     1
290
     0
176
     1
 90
       50
176
     1
 40
0.0
176
     1
 40
1.0
176
     1
 90
        0
176
     1
 62
    18
420
        0
176
     1
 90
       50
176
     1
 90
        3
176
     1
 62
     5
420
      255
176
     1
290
     0
176
     1
 90
       50
176
     1
 90
       50
176
     1
 90
       50
176
     1
290
     0
176
     1
 90
       50
176
     1
 62
   256
176
     0
 40
1.0
176
     0
 90
        2
176
     1
  1
strokes_ogs.tif
176
     1
290
     0
176
     1
 40
1.0
176
     1
 40
1.0
176
     1
  0
VISUALSTYLE
  5
36
102
{ACAD_REACTORS
330
2A
102
}
330
2A
100
AcDbVisualStyle
  2
Brighten
 70
    12
177
     3
291
     1
 70
    58
 90
        2
176
     1
 90
        2
176
     1
 90
        0
176
     1
 90
        0
176
     1
 40
0.6
176
     1
 40
30.0
176
     1
 62
     7
420
 16777215
176
     1
 90
        1
176
     1
 90
        4
176
     1
 62
     7
176
     1
 62
   257
176
     1
 90
        1
176
     1
 90
        1
176
     1
 40
1.0
176
     1
 90
        8
176
     1
 62
     7
176
     1
 40
1.0
176
     1
 90
        1
176
     1
 90
        6
176
     1
 90
        2
176
     1
 62
     7
176
     1
 90
        5
176
     1
 90
        0
176
     1
 90
        0
176
     1
290
     0
176
     1
 90
        1
176
     1
 40
50.0
176
     1
 90
        0
176
     1
290
     0
176
     1
290
     1
176
     1
290
     1
176
     1
290
     0
176
     1
290
     0
176
     1
290
     0
176
     1
290
     0
176
     1
290
     0
176
     1
290
     0
176
     1
 90
       50
176
     1
 40
0.0
176
     1
 40
1.0
176
     1
 90
        0
176
     1
 62
    18
420
        0
176
     1
 90
       50
176
     1
 90
        3
176
     1
 62
     5
420
      255
176
     1
290
     0
176
     1
 90
       50
176
     1
 90
       50
176
     1
 90
       50
176
     1
290
     0
176
     1
 90
       50
176
     1
 62
   256
176
     0
 40
1.0
176
     0
 90
        2
176
     1
  1
strokes_ogs.tif
176
     1
290
     0
176
     1
 40
1.0
176
     1
 40
1.0
176
     1
  0
VISUALSTYLE
  5
3A
102
{ACAD_REACTORS
330
2A
102
}
330
2A
100
AcDbVisualStyle
  2
ColorChange
 70
    16
177
     3
291
     1
 70
    58
 90
        2
176
     1
 90
        2
176
     1
 90
        3
176
     1
 90
        0
176
     1
 40
0.6
176
     1
 40
30.0
176
     1
 62
     8
420
  8421504
176
     1
 90
        1
176
     1
 90
        4
176
     1
 62
     7
176
     1
 62
   257
176
     1
 90
        1
176
     1
 90
        1
176
     1
 40
1.0
176
     1
 90
        8
176
     1
 62
     8
420
  8421504
176
     1
 40
1.0
176
     1
 90
        1
176
     1
 90
        6
176
     1
 90
        2
176
     1
 62
     7
176
     1
 90
        5
176
     1
 90
        0
176
     1
 90
        0
176
     1
290
     0
176
     1
 90
        1
176
     1
 40
0.0
176
     1
 90
        0
176
     1
290
     0
176
     1
290
     1
176
     1
290
     1
176
     1
290
     0
176
     1
290
     0
176
     1
290
     0
176
     1
290
     0
176
     1
290
     0
176
     1
290
     0
176
     1
 90
       50
176
     1
 40
0.0
176
     1
 40
1.0
176
     1
 90
        0
176
     1
 62
    18
420
        0
176
     1
 90
       50
176
     1
 90
        3
176
     1
 62
     5
420
      255
176
     1
290
     0
176
     1
 90
       50
176
     1
 90
       50
176
     1
 90
       50
176
     1
290
     0
176
     1
 90
       50
176
     1
 62
   256
176
     0
 40
1.0
176
     0
 90
        2
176
     1
  1
strokes_ogs.tif
176
     1
290
     0
176
     1
 40
1.0
176
     1
 40
1.0
176
     1
  0
VISUALSTYLE
  5
34
102
{ACAD_REACTORS
330
2A
102
}
330
2A
100
AcDbVisualStyle
  2
Conceptual
 70
     9
177
     3
291
     0
 70
    58
 90
        3
176
     1
 90
        2
176
     1
 90
        0
176
     1
 90
        0
176
     1
 40
0.6
176
     1
 40
30.0
176
     1
 62
     7
420
 16777215
176
     1
 90
        2
176
     1
 90
        2
176
     1
 62
     7
176
     1
 62
   257
176
     1
 90
        1
176
     1
 90
        1
176
     1
 40
179.0
176
     1
 90
        8
176
     1
 62
     7
176
     1
 40
1.0
176
     1
 90
        1
176
     1
 90
        6
176
     1
 90
        2
176
     1
 62
     7
176
     1
 90
        3
176
     1
 90
        0
176
     1
 90
        0
176
     1
290
     0
176
     1
 90
        1
176
     1
 40
0.0
176
     1
 90
        0
176
     1
290
     0
176
     1
290
     1
176
     1
290
     1
176
     1
290
     0
176
     1
290
     0
176
     1
290
     0
176
     1
290
     0
176
     1
290
     0
176
     1
290
     0
176
     1
 90
       50
176
     1
 40
0.0
176
     1
 40
1.0
176
     1
 90
        0
176
     1
 62
    18
420
        0
176
     1
 90
       50
176
     1
 90
        3
176
     1
 62
     5
420
      255
176
     1
290
     0
176
     1
 90
       50
176
     1
 90
       50
176
     1
 90
       50
176
     1
290
     0
176
     1
 90
       50
176
     1
 62
   256
176
     0
 40
1.0
176
     0
 90
        2
176
     1
  1
strokes_ogs.tif
176
     1
290
     0
176
     1
 40
1.0
176
     1
 40
1.0
176
     1
  0
VISUALSTYLE
  5
35
102
{ACAD_REACTORS
330
2A
102
}
330
2A
100
AcDbVisualStyle
  2
Dim
 70
    11
177
     3
291
     1
 70
    58
 90
        2
176
     1
 90
        2
176
     1
 90
        0
176
     1
 90
        0
176
     1
 40
0.6
176
     1
 40
30.0
176
     1
 62
     7
420
 16777215
176
     1
 90
        1
176
     1
 90
        4
176
     1
 62
     7
176
     1
 62
   257
176
     1
 90
        1
176
     1
 90
        1
176
     1
 40
1.0
176
     1
 90
        8
176
     1
 62
     7
176
     1
 40
1.0
176
     1
 90
        1
176
     1
 90
        6
176
     1
 90
        2
176
     1
 62
     7
176
     1
 90
        5
176
     1
 90
        0
176
     1
 90
        0
176
     1
290
     0
176
     1
 90
        1
176
     1
 40
-50.0
176
     1
 90
        0
176
     1
290
     0
176
     1
290
     1
176
     1
290
     1
176
     1
290
     0
176
     1
290
     0
176
     1
290
     0
176
     1
290
     0
176
     1
290
     0
176
     1
290
     0
176
     1
 90
       50
176
     1
 40
0.0
176
     1
 40
1.0
176
     1
 90
        0
176
     1
 62
    18
420
        0
176
     1
 90
       50
176
     1
 90
        3
176
     1
 62
     5
420
      255
176
     1
290
     0
176
     1
 90
       50
176
     1
 90
       50
176
     1
 90
       50
176
     1
290
     0
176
     1
 90
       50
176
     1
 62
   256
176
     0
 40
1.0
176
     0
 90
        2
176
     1
  1
strokes_ogs.tif
176
     1
290
     0
176
     1
 40
1.0
176
     1
 40
1.0
176
     1
  0
VISUALSTYLE
  5
3D
102
{ACAD_REACTORS
330
2A
102
}
330
2A
100
AcDbVisualStyle
  2
EdgeColorOff
 70
    22
177
     3
291
     1
 70
    58
 90
        2
176
     0
 90
        2
176
     0
 90
        0
176
     0
 90
        0
176
     0
 40
0.6
176
     0
 40
30.0
176
     0
 62
     7
420
 16777215
176
     0
 90
        1
176
     0
 90
        4
176
     0
 62
     7
176
     0
 62
   257
176
     0
 90
        1
176
     0
 90
        1
176
     0
 40
1.0
176
     0
 90
        8
176
     2
 62
     7
176
     0
 40
1.0
176
     0
 90
        1
176
     0
 90
        6
176
     0
 90
        2
176
     0
 62
     7
176
     0
 90
        5
176
     0
 90
        0
176
     0
 90
        0
176
     0
290
     0
176
     0
 90
        1
176
     0
 40
0.0
176
     0
 90
        0
176
     0
290
     0
176
     0
290
     1
176
     0
290
     1
176
     0
290
     0
176
     0
290
     0
176
     0
290
     0
176
     0
290
     0
176
     0
290
     0
176
     0
290
     0
176
     0
 90
       50
176
     0
 40
0.0
176
     0
 40
1.0
176
     0
 90
        0
176
     0
 62
    18
420
        0
176
     0
 90
       50
176
     0
 90
        3
176
     0
 62
     5
420
      255
176
     0
290
     0
176
     0
 90
       50
176
     0
 90
       50
176
     0
 90
       50
176
     0
290
     0
176
     0
 90
       50
176
     0
 62
   256
176
     0
 40
1.0
176
     0
 90
        2
176
     0
  1
strokes_ogs.tif
176
     0
290
     0
176
     0
 40
1.0
176
     0
 40
1.0
176
     0
  0
VISUALSTYLE
  5
39
102
{ACAD_REACTORS
330
2A
102
}
330
2A
100
AcDbVisualStyle
  2
Facepattern
 70
    15
177
     3
291
     1
 70
    58
 90
        2
176
     1
 90
        2
176
     1
 90
        0
176
     1
 90
        0
176
     1
 40
0.6
176
     1
 40
30.0
176
     1
 62
     7
420
 16777215
176
     1
 90
        1
176
     1
 90
        4
176
     1
 62
     7
176
     1
 62
   257
176
     1
 90
        1
176
     1
 90
        1
176
     1
 40
1.0
176
     1
 90
        8
176
     1
 62
     7
176
     1
 40
1.0
176
     1
 90
        1
176
     1
 90
        6
176
     1
 90
        2
176
     1
 62
     7
176
     1
 90
        5
176
     1
 90
        0
176
     1
 90
        0
176
     1
290
     0
176
     1
 90
        1
176
     1
 40
0.0
176
     1
 90
        0
176
     1
290
     0
176
     1
290
     1
176
     1
290
     1
176
     1
290
     0
176
     1
290
     0
176
     1
290
     0
176
     1
290
     0
176
     1
290
     0
176
     1
290
     0
176
     1
 90
       50
176
     1
 40
0.0
176
     1
 40
1.0
176
     1
 90
        0
176
     1
 62
    18
420
        0
176
     1
 90
       50
176
     1
 90
        3
176
     1
 62
     5
420
      255
176
     1
290
     0
176
     1
 90
       50
176
     1
 90
       50
176
     1
 90
       50
176
     1
290
     0
176
     1
 90
       50
176
     1
 62
   256
176
     0
 40
1.0
176
     0
 90
        2
176
     1
  1
strokes_ogs.tif
176
     1
290
     0
176
     1
 40
1.0
176
     1
 40
1.0
176
     1
  0
VISUALSTYLE
  5
2B
102
{ACAD_REACTORS
330
2A
102
}
330
2A
100
AcDbVisualStyle
  2
Flat
 70
     0
177
     3
291
     1
 70
    58
 90
        2
176
     1
 90
        1
176
     1
 90
        1
176
     1
 90
        2
176
     1
 40
0.6
176
     1
 40
30.0
176
     1
 62
     7
420
 16777215
176
     1
 90
        0
176
     1
 90
        0
176
     1
 62
     7
176
     1
 62
   257
176
     1
 90
        1
176
     1
 90
        1
176
     1
 40
1.0
176
     1
 90
        8
176
     1
 62
     7
176
     1
 40
1.0
176
     1
 90
        1
176
     1
 90
        6
176
     1
 90
        2
176
     1
 62
     7
176
     1
 90
        5
176
     1
 90
        0
176
     1
 90
        0
176
     1
290
     0
176
     1
 90
       13
176
     1
 40
0.0
176
     1
 90
        0
176
     1
290
     0
176
     1
290
     1
176
     1
290
     1
176
     1
290
     0
176
     1
290
     0
176
     1
290
     0
176
     1
290
     0
176
     1
290
     0
176
     1
290
     0
176
     1
 90
       50
176
     1
 40
0.0
176
     1
 40
1.0
176
     1
 90
        0
176
     1
 62
    18
420
        0
176
     1
 90
       50
176
     1
 90
        3
176
     1
 62
     5
420
      255
176
     1
290
     0
176
     1
 90
       50
176
     1
 90
       50
176
     1
 90
       50
176
     1
290
     0
176
     1
 90
       50
176
     1
 62
   256
176
     0
 40
1.0
176
     0
 90
        2
176
     1
  1
strokes_ogs.tif
176
     1
290
     0
176
     1
 40
1.0
176
     1
 40
1.0
176
     1
  0
VISUALSTYLE
  5
2C
102
{ACAD_REACTORS
330
2A
102
}
330
2A
100
AcDbVisualStyle
  2
FlatWithEdges
 70
     1
177
     3
291
     1
 70
    58
 90
        2
176
     1
 90
        1
176
     1
 90
        1
176
     1
 90
        2
176
     1
 40
0.6
176
     1
 40
30.0
176
     1
 62
     7
420
 16777215
176
     1
 90
        1
176
     1
 90
        0
176
     1
 62
     7
176
     1
 62
   257
176
     1
 90
        1
176
     1
 90
        1
176
     1
 40
1.0
176
     1
 90
        0
176
     1
 62
   257
176
     1
 40
1.0
176
     1
 90
        1
176
     1
 90
        6
176
     1
 90
        2
176
     1
 62
     7
176
     1
 90
        5
176
     1
 90
        0
176
     1
 90
        0
176
     1
290
     0
176
     1
 90
       13
176
     1
 40
0.0
176
     1
 90
        0
176
     1
290
     0
176
     1
290
     1
176
     1
290
     1
176
     1
290
     0
176
     1
290
     0
176
     1
290
     0
176
     1
290
     0
176
     1
290
     0
176
     1
290
     0
176
     1
 90
       50
176
     1
 40
0.0
176
     1
 40
1.0
176
     1
 90
        0
176
     1
 62
    18
420
        0
176
     1
 90
       50
176
     1
 90
        3
176
     1
 62
     5
420
      255
176
     1
290
     0
176
     1
 90
       50
176
     1
 90
       50
176
     1
 90
       50
176
     1
290
     0
176
     1
 90
       50
176
     1
 62
   256
176
     0
 40
1.0
176
     0
 90
        2
176
     1
  1
strokes_ogs.tif
176
     1
290
     0
176
     1
 40
1.0
176
     1
 40
1.0
176
     1
  0
VISUALSTYLE
  5
2D
102
{ACAD_REACTORS
330
2A
102
}
330
2A
100
AcDbVisualStyle
  2
Gouraud
 70
     2
177
     3
291
     1
 70
    58
 90
        2
176
     1
 90
        2
176
     1
 90
        1
176
     1
 90
        2
176
     1
 40
0.6
176
     1
 40
30.0
176
     1
 62
     7
420
 16777215
176
     1
 90
        0
176
     1
 90
        0
176
     1
 62
     7
176
     1
 62
   257
176
     1
 90
        1
176
     1
 90
        1
176
     1
 40
1.0
176
     1
 90
        0
176
     1
 62
     7
176
     1
 40
1.0
176
     1
 90
        1
176
     1
 90
        6
176
     1
 90
        2
176
     1
 62
     7
176
     1
 90
        5
176
     1
 90
        0
176
     1
 90
        0
176
     1
290
     0
176
     1
 90
       13
176
     1
 40
0.0
176
     1
 90
        0
176
     1
290
     0
176
     1
290
     1
176
     1
290
     1
176
     1
290
     0
176
     1
290
     0
176
     1
290
     0
176
     1
290
     0
176
     1
290
     0
176
     1
290
     0
176
     1
 90
       50
176
     1
 40
0.0
176
     1
 40
1.0
176
     1
 90
        0
176
     1
 62
    18
420
        0
176
     1
 90
       50
176
     1
 90
        3
176
     1
 62
     5
420
      255
176
     1
290
     0
176
     1
 90
       50
176
     1
 90
       50
176
     1
 90
       50
176
     1
290
     0
176
     1
 90
       50
176
     1
 62
   256
176
     0
 40
1.0
176
     0
 90
        2
176
     1
  1
strokes_ogs.tif
176
     1
290
     0
176
     1
 40
1.0
176
     1
 40
1.0
176
     1
  0
VISUALSTYLE
  5
2E
102
{ACAD_REACTORS
330
2A
102
}
330
2A
100
AcDbVisualStyle
  2
GouraudWithEdges
 70
     3
177
     3
291
     1
 70
    58
 90
        2
176
     1
 90
        2
176
     1
 90
        1
176
     1
 90
        2
176
     1
 40
0.6
176
     1
 40
30.0
176
     1
 62
     7
420
 16777215
176
     1
 90
        1
176
     1
 90
        0
176
     1
 62
     7
176
     1
 62
   257
176
     1
 90
        1
176
     1
 90
        1
176
     1
 40
1.0
176
     1
 90
        0
176
     1
 62
   257
176
     1
 40
1.0
176
     1
 90
        1
176
     1
 90
        6
176
     1
 90
        2
176
     1
 62
     7
176
     1
 90
        5
176
     1
 90
        0
176
     1
 90
        0
176
     1
290
     0
176
     1
 90
       13
176
     1
 40
0.0
176
     1
 90
        0
176
     1
290
     0
176
     1
290
     1
176
     1
290
     1
176
     1
290
     0
176
     1
290
     0
176
     1
290
     0
176
     1
290
     0
176
     1
290
     0
176
     1
290
     0
176
     1
 90
       50
176
     1
 40
0.0
176
     1
 40
1.0
176
     1
 90
        0
176
     1
 62
    18
420
        0
176
     1
 90
       50
176
     1
 90
        3
176
     1
 62
     5
420
      255
176
     1
290
     0
176
     1
 90
       50
176
     1
 90
       50
176
     1
 90
       50
176
     1
290
     0
176
     1
 90
       50
176
     1
 62
   256
176
     0
 40
1.0
176
     0
 90
        2
176
     1
  1
strokes_ogs.tif
176
     1
290
     0
176
     1
 40
1.0
176
     1
 40
1.0
176
     1
  0
VISUALSTYLE
  5
31
102
{ACAD_REACTORS
330
2A
102
}
330
2A
100
AcDbVisualStyle
  2
Hidden
 70
     6
177
     3
291
     0
 70
    58
 90
        1
176
     1
 90
        2
176
     1
 90
        2
176
     1
 90
        0
176
     1
 40
0.6
176
     1
 40
30.0
176
     1
 62
     7
420
 16777215
176
     1
 90
        2
176
     1
 90
        2
176
     1
 62
     7
176
     1
 62
   257
176
     1
 90
        2
176
     1
 90
        1
176
     1
 40
40.0
176
     1
 90
        0
176
     1
 62
   257
176
     1
 40
1.0
176
     1
 90
        1
176
     1
 90
        6
176
     1
 90
        2
176
     1
 62
     7
176
     1
 90
        3
176
     1
 90
        0
176
     1
 90
        0
176
     1
290
     0
176
     1
 90
        1
176
     1
 40
0.0
176
     1
 90
        0
176
     1
290
     0
176
     1
290
     1
176
     1
290
     1
176
     1
290
     0
176
     1
290
     0
176
     1
290
     0
176
     1
290
     0
176
     1
290
     0
176
     1
290
     0
176
     1
 90
       50
176
     1
 40
0.0
176
     1
 40
1.0
176
     1
 90
        0
176
     1
 62
    18
420
        0
176
     1
 90
       50
176
     1
 90
        3
176
     1
 62
     5
420
      255
176
     1
290
     0
176
     1
 90
       50
176
     1
 90
       50
176
     1
 90
       50
176
     1
290
     0
176
     1
 90
       50
176
     1
 62
   256
176
     0
 40
1.0
176
     0
 90
        2
176
     1
  1
strokes_ogs.tif
176
     1
290
     0
176
     1
 40
1.0
176
     1
 40
1.0
176
     1
  0
VISUALSTYLE
  5
3B
102
{ACAD_REACTORS
330
2A
102
}
330
2A
100
AcDbVisualStyle
  2
JitterOff
 70
    20
177
     3
291
     1
 70
    58
 90
        2
176
     0
 90
        2
176
     0
 90
        0
176
     0
 90
        0
176
     0
 40
0.6
176
     0
 40
30.0
176
     0
 62
     7
420
 16777215
176
     0
 90
        1
176
     0
 90
        4
176
     0
 62
     7
176
     0
 62
   257
176
     0
 90
        1
176
     0
 90
        1
176
     0
 40
1.0
176
     0
 90
       10
176
     2
 62
     7
176
     0
 40
1.0
176
     0
 90
        1
176
     0
 90
        6
176
     0
 90
        2
176
     0
 62
     7
176
     0
 90
        5
176
     0
 90
        0
176
     0
 90
        0
176
     0
290
     0
176
     0
 90
        1
176
     0
 40
0.0
176
     0
 90
        0
176
     0
290
     0
176
     0
290
     1
176
     0
290
     1
176
     0
290
     0
176
     0
290
     0
176
     0
290
     0
176
     0
290
     0
176
     0
290
     0
176
     0
290
     0
176
     0
 90
       50
176
     0
 40
0.0
176
     0
 40
1.0
176
     0
 90
        0
176
     0
 62
    18
420
        0
176
     0
 90
       50
176
     0
 90
        3
176
     0
 62
     5
420
      255
176
     0
290
     0
176
     0
 90
       50
176
     0
 90
       50
176
     0
 90
       50
176
     0
290
     0
176
     0
 90
       50
176
     0
 62
   256
176
     0
 40
1.0
176
     0
 90
        2
176
     0
  1
strokes_ogs.tif
176
     0
290
     0
176
     0
 40
1.0
176
     0
 40
1.0
176
     0
  0
VISUALSTYLE
  5
38
102
{ACAD_REACTORS
330
2A
102
}
330
2A
100
AcDbVisualStyle
  2
Linepattern
 70
    14
177
     3
291
     1
 70
    58
 90
        2
176
     1
 90
        2
176
     1
 90
        0
176
     1
 90
        0
176
     1
 40
0.6
176
     1
 40
30.0
176
     1
 62
     7
420
 16777215
176
     1
 90
        1
176
     1
 90
        4
176
     1
 62
     7
176
     1
 62
   257
176
     1
 90
        7
176
     1
 90
        7
176
     1
 40
1.0
176
     1
 90
        8
176
     1
 62
     7
176
     1
 40
1.0
176
     1
 90
        1
176
     1
 90
        6
176
     1
 90
        2
176
     1
 62
     7
176
     1
 90
        5
176
     1
 90
        0
176
     1
 90
        0
176
     1
290
     0
176
     1
 90
        1
176
     1
 40
0.0
176
     1
 90
        0
176
     1
290
     0
176
     1
290
     1
176
     1
290
     1
176
     1
290
     0
176
     1
290
     0
176
     1
290
     0
176
     1
290
     0
176
     1
290
     0
176
     1
290
     0
176
     1
 90
       50
176
     1
 40
0.0
176
     1
 40
1.0
176
     1
 90
        0
176
     1
 62
    18
420
        0
176
     1
 90
       50
176
     1
 90
        3
176
     1
 62
     5
420
      255
176
     1
290
     0
176
     1
 90
       50
176
     1
 90
       50
176
     1
 90
       50
176
     1
290
     0
176
     1
 90
       50
176
     1
 62
   256
176
     0
 40
1.0
176
     0
 90
        2
176
     1
  1
strokes_ogs.tif
176
     1
290
     0
176
     1
 40
1.0
176
     1
 40
1.0
176
     1
  0
VISUALSTYLE
  5
3C
102
{ACAD_REACTORS
330
2A
102
}
330
2A
100
AcDbVisualStyle
  2
OverhangOff
 70
    21
177
     3
291
     1
 70
    58
 90
        2
176
     0
 90
        2
176
     0
 90
        0
176
     0
 90
        0
176
     0
 40
0.6
176
     0
 40
30.0
176
     0
 62
     7
420
 16777215
176
     0
 90
        1
176
     0
 90
        4
176
     0
 62
     7
176
     0
 62
   257
176
     0
 90
        1
176
     0
 90
        1
176
     0
 40
1.0
176
     0
 90
        9
176
     2
 62
     7
176
     0
 40
1.0
176
     0
 90
        1
176
     0
 90
        6
176
     0
 90
        2
176
     0
 62
     7
176
     0
 90
        5
176
     0
 90
        0
176
     0
 90
        0
176
     0
290
     0
176
     0
 90
        1
176
     0
 40
0.0
176
     0
 90
        0
176
     0
290
     0
176
     0
290
     1
176
     0
290
     1
176
     0
290
     0
176
     0
290
     0
176
     0
290
     0
176
     0
290
     0
176
     0
290
     0
176
     0
290
     0
176
     0
 90
       50
176
     0
 40
0.0
176
     0
 40
1.0
176
     0
 90
        0
176
     0
 62
    18
420
        0
176
     0
 90
       50
176
     0
 90
        3
176
     0
 62
     5
420
      255
176
     0
290
     0
176
     0
 90
       50
176
     0
 90
       50
176
     0
 90
       50
176
     0
290
     0
176
     0
 90
       50
176
     0
 62
   256
176
     0
 40
1.0
176
     0
 90
        2
176
     0
  1
strokes_ogs.tif
176
     0
290
     0
176
     0
 40
1.0
176
     0
 40
1.0
176
     0
  0
VISUALSTYLE
  5
33
102
{ACAD_REACTORS
330
2A
102
}
330
2A
100
AcDbVisualStyle
  2
Realistic
 70
     8
177
     3
291
     0
 70
    58
 90
        2
176
     1
 90
        3
176
     1
 90
        0
176
     1
 90
        2
176
     1
 40
0.6
176
     1
 40
30.0
176
     1
 62
     7
420
 16777215
176
     1
 90
        0
176
     1
 90
        0
176
     1
 62
     7
176
     1
 62
   257
176
     1
 90
        1
176
     1
 90
        1
176
     1
 40
1.0
176
     1
 90
        8
176
     1
 62
   257
176
     1
 40
1.0
176
     1
 90
        1
176
     1
 90
        6
176
     1
 90
        2
176
     1
 62
     7
176
     1
 90
        3
176
     1
 90
        0
176
     1
 90
        0
176
     1
290
     0
176
     1
 90
       13
176
     1
 40
0.0
176
     1
 90
        0
176
     1
290
     0
176
     1
290
     1
176
     1
290
     1
176
     1
290
     0
176
     1
290
     0
176
     1
290
     0
176
     1
290
     0
176
     1
290
     0
176
     1
290
     0
176
     1
 90
       50
176
     1
 40
0.0
176
     1
 40
1.0
176
     1
 90
        0
176
     1
 62
    18
420
        0
176
     1
 90
       50
176
     1
 90
        3
176
     1
 62
     5
420
      255
176
     1
290
     0
176
     1
 90
       50
176
     1
 90
       50
176
     1
 90
       50
176
     1
290
     0
176
     1
 90
       50
176
     1
 62
   256
176
     0
 40
1.0
176
     0
 90
        2
176
     1
  1
strokes_ogs.tif
176
     1
290
     0
176
     1
 40
1.0
176
     1
 40
1.0
176
     1
  0
VISUALSTYLE
  5
42
102
{ACAD_REACTORS
330
2A
102
}
330
2A
100
AcDbVisualStyle
  2
Shaded
 70
    27
177
     3
291
     0
 70
    58
 90
        2
176
     1
 90
        2
176
     1
 90
        1
176
     1
 90
        2
176
     1
 40
0.6
176
     1
 40
30.0
176
     1
 62
     7
420
 16777215
176
     1
 90
        0
176
     1
 90
        4
176
     1
 62
     7
176
     1
 62
   257
176
     1
 90
        1
176
     1
 90
        1
176
     1
 40
1.0
176
     1
 90
        8
176
     1
 62
   257
176
     1
 40
1.0
176
     1
 90
        1
176
     1
 90
        6
176
     1
 90
        2
176
     1
 62
     8
420
  7895160
176
     1
 90
        3
176
     1
 90
        0
176
     1
 90
        0
176
     1
290
     0
176
     1
 90
        5
176
     1
 40
0.0
176
     1
 90
        0
176
     1
290
     0
176
     1
290
     1
176
     1
290
     1
176
     1
290
     0
176
     1
290
     0
176
     1
290
     0
176
     1
290
     0
176
     1
290
     0
176
     1
290
     0
176
     1
 90
       50
176
     1
 40
0.0
176
     1
 40
1.0
176
     1
 90
        0
176
     1
 62
    18
420
        0
176
     1
 90
       50
176
     1
 90
        3
176
     1
 62
     5
420
      255
176
     1
290
     0
176
     1
 90
       50
176
     1
 90
       50
176
     1
 90
       50
176
     1
290
     0
176
     1
 90
       50
176
     1
 62
   256
176
     0
 40
1.0
176
     0
 90
        2
176
     1
  1
strokes_ogs.tif
176
     1
290
     0
176
     1
 40
1.0
176
     1
 40
1.0
176
     1
  0
VISUALSTYLE
  5
41
102
{ACAD_REACTORS
330
2A
102
}
330
2A
100
AcDbVisualStyle
  2
Shaded with edges
 70
    26
177
     3
291
     0
 70
    58
 90
        2
176
     1
 90
        2
176
     1
 90
        1
176
     1
 90
        2
176
     1
 40
0.6
176
     1
 40
30.0
176
     1
 62
     7
420
 16777215
176
     1
 90
        1
176
     1
 90
       10
176
     1
 62
     7
176
     1
 62
   257
176
     1
 90
        2
176
     1
 90
        1
176
     1
 40
1.0
176
     1
 90
        8
176
     1
 62
   257
176
     1
 40
1.0
176
     1
 90
        1
176
     1
 90
        6
176
     1
 90
        2
176
     1
 62
     7
176
     1
 90
        3
176
     1
 90
        0
176
     1
 90
        0
176
     1
290
     0
176
     1
 90
        5
176
     1
 40
0.0
176
     1
 90
        0
176
     1
290
     0
176
     1
290
     1
176
     1
290
     1
176
     1
290
     0
176
     1
290
     0
176
     1
290
     0
176
     1
290
     0
176
     1
290
     0
176
     1
290
     0
176
     1
 90
       50
176
     1
 40
0.0
176
     1
 40
1.0
176
     1
 90
        0
176
     1
 62
    18
420
        0
176
     1
 90
       50
176
     1
 90
        3
176
     1
 62
     5
420
      255
176
     1
290
     0
176
     1
 90
       50
176
     1
 90
       50
176
     1
 90
       50
176
     1
290
     0
176
     1
 90
       50
176
     1
 62
   256
176
     0
 40
1.0
176
     0
 90
        2
176
     1
  1
strokes_ogs.tif
176
     1
290
     0
176
     1
 40
1.0
176
     1
 40
1.0
176
     1
  0
VISUALSTYLE
  5
3E
102
{ACAD_REACTORS
330
2A
102
}
330
2A
100
AcDbVisualStyle
  2
Shades of Gray
 70
    23
177
     3
291
     0
 70
    58
 90
        2
176
     1
 90
        2
176
     1
 90
        3
176
     1
 90
        0
176
     1
 40
0.6
176
     1
 40
30.0
176
     1
 62
     7
420
 16777215
176
     1
 90
        2
176
     1
 90
        2
176
     1
 62
     7
176
     1
 62
     7
176
     1
 90
        1
176
     1
 90
        1
176
     1
 40
40.0
176
     1
 90
        8
176
     1
 62
     7
176
     1
 40
1.0
176
     1
 90
        1
176
     1
 90
        6
176
     1
 90
        2
176
     1
 62
     7
176
     1
 90
        3
176
     1
 90
        0
176
     1
 90
        0
176
     1
290
     0
176
     1
 90
        1
176
     1
 40
0.0
176
     1
 90
        0
176
     1
290
     0
176
     1
290
     1
176
     1
290
     1
176
     1
290
     0
176
     1
290
     0
176
     1
290
     0
176
     1
290
     0
176
     1
290
     0
176
     1
290
     0
176
     1
 90
       50
176
     1
 40
0.0
176
     1
 40
1.0
176
     1
 90
        0
176
     1
 62
    18
420
        0
176
     1
 90
       50
176
     1
 90
        3
176
     1
 62
     5
420
      255
176
     1
290
     0
176
     1
 90
       50
176
     1
 90
       50
176
     1
 90
       50
176
     1
290
     0
176
     1
 90
       50
176
     1
 62
   256
176
     0
 40
1.0
176
     0
 90
        2
176
     1
  1
strokes_ogs.tif
176
     1
290
     0
176
     1
 40
1.0
176
     1
 40
1.0
176
     1
  0
VISUALSTYLE
  5
3F
102
{ACAD_REACTORS
330
2A
102
}
330
2A
100
AcDbVisualStyle
  2
Sketchy
 70
    24
177
     3
291
     0
 70
    58
 90
        1
176
     1
 90
        2
176
     1
 90
        2
176
     1
 90
        0
176
     1
 40
0.6
176
     1
 40
30.0
176
     1
 62
     7
420
 16777215
176
     1
 90
        2
176
     1
 90
        2
176
     1
 62
     7
176
     1
 62
     7
176
     1
 90
        1
176
     1
 90
        1
176
     1
 40
40.0
176
     1
 90
       11
176
     1
 62
     7
176
     1
 40
1.0
176
     1
 90
        1
176
     1
 90
        6
176
     1
 90
        2
176
     1
 62
     7
176
     1
 90
        6
176
     1
 90
        0
176
     1
 90
        0
176
     1
290
     0
176
     1
 90
        1
176
     1
 40
0.0
176
     1
 90
        0
176
     1
290
     0
176
     1
290
     1
176
     1
290
     1
176
     1
290
     0
176
     1
290
     0
176
     1
290
     0
176
     1
290
     0
176
     1
290
     0
176
     1
290
     0
176
     1
 90
       50
176
     1
 40
0.0
176
     1
 40
1.0
176
     1
 90
        0
176
     1
 62
    18
420
        0
176
     1
 90
       50
176
     1
 90
        3
176
     1
 62
     5
420
      255
176
     1
290
     0
176
     1
 90
       50
176
     1
 90
       50
176
     1
 90
       50
176
     1
290
     0
176
     1
 90
       50
176
     1
 62
   256
176
     0
 40
1.0
176
     0
 90
        2
176
     1
  1
strokes_ogs.tif
176
     1
290
     0
176
     1
 40
1.0
176
     1
 40
1.0
176
     1
  0
VISUALSTYLE
  5
37
102
{ACAD_REACTORS
330
2A
102
}
330
2A
100
AcDbVisualStyle
  2
Thicken
 70
    13
177
     3
291
     1
 70
    58
 90
        2
176
     1
 90
        2
176
     1
 90
        0
176
     1
 90
        0
176
     1
 40
0.6
176
     1
 40
30.0
176
     1
 62
     7
420
 16777215
176
     1
 90
        1
176
     1
 90
        4
176
     1
 62
     7
176
     1
 62
   257
176
     1
 90
        1
176
     1
 90
        1
176
     1
 40
1.0
176
     1
 90
       12
176
     1
 62
     7
176
     1
 40
1.0
176
     1
 90
        1
176
     1
 90
        6
176
     1
 90
        2
176
     1
 62
     7
176
     1
 90
        5
176
     1
 90
        0
176
     1
 90
        0
176
     1
290
     0
176
     1
 90
        1
176
     1
 40
0.0
176
     1
 90
        0
176
     1
290
     0
176
     1
290
     1
176
     1
290
     1
176
     1
290
     0
176
     1
290
     0
176
     1
290
     0
176
     1
290
     0
176
     1
290
     0
176
     1
290
     0
176
     1
 90
       50
176
     1
 40
0.0
176
     1
 40
1.0
176
     1
 90
        0
176
     1
 62
    18
420
        0
176
     1
 90
       50
176
     1
 90
        3
176
     1
 62
     5
420
      255
176
     1
290
     0
176
     1
 90
       50
176
     1
 90
       50
176
     1
 90
       50
176
     1
290
     0
176
     1
 90
       50
176
     1
 62
   256
176
     0
 40
1.0
176
     0
 90
        2
176
     1
  1
strokes_ogs.tif
176
     1
290
     0
176
     1
 40
1.0
176
     1
 40
1.0
176
     1
  0
VISUALSTYLE
  5
30
102
{ACAD_REACTORS
330
2A
102
}
330
2A
100
AcDbVisualStyle
  2
Wireframe
 70
     5
177
     3
291
     0
 70
    58
 90
        0
176
     1
 90
        2
176
     1
 90
        0
176
     1
 90
        0
176
     1
 40
0.6
176
     1
 40
30.0
176
     1
 62
     7
420
 16777215
176
     1
 90
        1
176
     1
 90
        4
176
     1
 62
     7
176
     1
 62
   257
176
     1
 90
        1
176
     1
 90
        1
176
     1
 40
1.0
176
     1
 90
        0
176
     1
 62
   257
176
     1
 40
1.0
176
     1
 90
        1
176
     1
 90
        6
176
     1
 90
        2
176
     1
 62
     7
176
     1
 90
        3
176
     1
 90
        0
176
     1
 90
        0
176
     1
290
     0
176
     1
 90
        1
176
     1
 40
0.0
176
     1
 90
        0
176
     1
290
     0
176
     1
290
     1
176
     1
290
     1
176
     1
290
     0
176
     1
290
     0
176
     1
290
     0
176
     1
290
     0
176
     1
290
     0
176
     1
290
     0
176
     1
 90
       50
176
     1
 40
0.0
176
     1
 40
1.0
176
     1
 90
        0
176
     1
 62
    18
420
        0
176
     1
 90
       50
176
     1
 90
        3
176
     1
 62
     5
420
      255
176
     1
290
     0
176
     1
 90
       50
176
     1
 90
       50
176
     1
 90
       50
176
     1
290
     0
176
     1
 90
       50
176
     1
 62
   256
176
     0
 40
1.0
176
     0
 90
        2
176
     1
  1
strokes_ogs.tif
176
     1
290
     0
176
     1
 40
1.0
176
     1
 40
1.0
176
     1
  0
VISUALSTYLE
  5
40
102
{ACAD_REACTORS
330
2A
102
}
330
2A
100
AcDbVisualStyle
  2
X-Ray
 70
    25
177
     3
291
     0
 70
    58
 90
        2
176
     1
 90
        2
176
     1
 90
        1
176
     1
 90
        1
176
     1
 40
0.5
176
     1
 40
30.0
176
     1
 62
     7
420
 16777215
176
     1
 90
        1
176
     1
 90
        0
176
     1
 62
     7
176
     1
 62
   257
176
     1
 90
        1
176
     1
 90
        1
176
     1
 40
1.0
176
     1
 90
        8
176
     1
 62
     7
176
     1
 40
1.0
176
     1
 90
        1
176
     1
 90
        6
176
     1
 90
        2
176
     1
 62
     7
176
     1
 90
        3
176
     1
 90
        0
176
     1
 90
        0
176
     1
290
     0
176
     1
 90
       13
176
     1
 40
0.0
176
     1
 90
        0
176
     1
290
     0
176
     1
290
     1
176
     1
290
     1
176
     1
290
     0
176
     1
290
     0
176
     1
290
     0
176
     1
290
     0
176
     1
290
     0
176
     1
290
     0
176
     1
 90
       50
176
     1
 40
0.0
176
     1
 40
1.0
176
     1
 90
        0
176
     1
 62
    18
420
        0
176
     1
 90
       50
176
     1
 90
        3
176
     1
 62
     5
420
      255
176
     1
290
     0
176
     1
 90
       50
176
     1
 90
       50
176
     1
 90
       50
176
     1
290
     0
176
     1
 90
       50
176
     1
 62
   256
176
     0
 40
1.0
176
     0
 90
        2
176
     1
  1
strokes_ogs.tif
176
     1
290
     0
176
     1
 40
1.0
176
     1
 40
1.0
176
     1
  0
DICTIONARYVAR
  5
11A
102
{ACAD_REACTORS
330
119
102
}
330
119
100
DictionaryVariables
280
     0
  1
1:1
  0
DICTIONARYVAR
  5
122
102
{ACAD_REACTORS
330
119
102
}
330
119
100
DictionaryVariables
280
     0
  1
3.500000
  0
DICTIONARYVAR
  5
123
102
{ACAD_REACTORS
330
119
102
}
330
119
100
DictionaryVariables
280
     0
  1
acadiso.lin
  0
DICTIONARYVAR
  5
11F
102
{ACAD_REACTORS
330
119
102
}
330
119
100
DictionaryVariables
280
     0
  1
Standard
  0
DICTIONARYVAR
  5
11E
102
{ACAD_REACTORS
330
119
102
}
330
119
100
DictionaryVariables
280
     0
  1
Standard
  0
DICTIONARY
  5
11B
330
6A
100
AcDbDictionary
280
     1
281
     1
  3
ACAD_ROUNDTRIP_2008_TABLESTYLE_CELLSTYLEMAP
360
11C
  0
CELLSTYLEMAP
  5
11C
102
{ACAD_REACTORS
330
11B
102
}
330
11B
100
AcDbCellStyleMap
 90
        3
300
CELLSTYLE
  1
TABLEFORMAT_BEGIN
 90
        5
170
     1
 91
        0
 92
    32768
 62
   257
 93
        1
300
CONTENTFORMAT
  1
CONTENTFORMAT_BEGIN
 90
        0
 91
        0
 92
        4
 93
        0
300

 40
0.0
140
1.0
 94
        5
 62
     0
340
11
144
6.0
309
CONTENTFORMAT_END
171
     1
301
MARGIN
  1
CELLMARGIN_BEGIN
 40
1.5
 40
1.5
 40
1.5
 40
1.5
 40
1.5
 40
1.5
309
CELLMARGIN_END
 94
        6
 95
        1
302
GRIDFORMAT
  1
GRIDFORMAT_BEGIN
 90
        0
 91
        1
 62
     0
 92
       -2
340
14
 93
        0
 40
0.045
309
GRIDFORMAT_END
 95
        2
302
GRIDFORMAT
  1
GRIDFORMAT_BEGIN
 90
        0
 91
        1
 62
     0
 92
       -2
340
14
 93
        0
 40
0.045
309
GRIDFORMAT_END
 95
        4
302
GRIDFORMAT
  1
GRIDFORMAT_BEGIN
 90
        0
 91
        1
 62
     0
 92
       -2
340
14
 93
        0
 40
0.045
309
GRIDFORMAT_END
 95
        8
302
GRIDFORMAT
  1
GRIDFORMAT_BEGIN
 90
        0
 91
        1
 62
     0
 92
       -2
340
14
 93
        0
 40
0.045
309
GRIDFORMAT_END
 95
       16
302
GRIDFORMAT
  1
GRIDFORMAT_BEGIN
 90
        0
 91
        1
 62
     0
 92
       -2
340
14
 93
        0
 40
0.045
309
GRIDFORMAT_END
 95
       32
302
GRIDFORMAT
  1
GRIDFORMAT_BEGIN
 90
        0
 91
        1
 62
     0
 92
       -2
340
14
 93
        0
 40
0.045
309
GRIDFORMAT_END
309
TABLEFORMAT_END
  1
CELLSTYLE_BEGIN
 90
        1
 91
        1
300
_TITLE
309
CELLSTYLE_END
300
CELLSTYLE
  1
TABLEFORMAT_BEGIN
 90
        5
170
     1
 91
        0
 92
        0
 62
   257
 93
        1
300
CONTENTFORMAT
  1
CONTENTFORMAT_BEGIN
 90
        0
 91
        0
 92
        4
 93
        0
300

 40
0.0
140
1.0
 94
        5
 62
     0
340
11
144
4.5
309
CONTENTFORMAT_END
171
     1
301
MARGIN
  1
CELLMARGIN_BEGIN
 40
1.5
 40
1.5
 40
1.5
 40
1.5
 40
1.5
 40
1.5
309
CELLMARGIN_END
 94
        6
 95
        1
302
GRIDFORMAT
  1
GRIDFORMAT_BEGIN
 90
        0
 91
        1
 62
     0
 92
       -2
340
14
 93
        0
 40
0.045
309
GRIDFORMAT_END
 95
        2
302
GRIDFORMAT
  1
GRIDFORMAT_BEGIN
 90
        0
 91
        1
 62
     0
 92
       -2
340
14
 93
        0
 40
0.045
309
GRIDFORMAT_END
 95
        4
302
GRIDFORMAT
  1
GRIDFORMAT_BEGIN
 90
        0
 91
        1
 62
     0
 92
       -2
340
14
 93
        0
 40
0.045
309
GRIDFORMAT_END
 95
        8
302
GRIDFORMAT
  1
GRIDFORMAT_BEGIN
 90
        0
 91
        1
 62
     0
 92
       -2
340
14
 93
        0
 40
0.045
309
GRIDFORMAT_END
 95
       16
302
GRIDFORMAT
  1
GRIDFORMAT_BEGIN
 90
        0
 91
        1
 62
     0
 92
       -2
340
14
 93
        0
 40
0.045
309
GRIDFORMAT_END
 95
       32
302
GRIDFORMAT
  1
GRIDFORMAT_BEGIN
 90
        0
 91
        1
 62
     0
 92
       -2
340
14
 93
        0
 40
0.045
309
GRIDFORMAT_END
309
TABLEFORMAT_END
  1
CELLSTYLE_BEGIN
 90
        2
 91
        1
300
_HEADER
309
CELLSTYLE_END
300
CELLSTYLE
  1
TABLEFORMAT_BEGIN
 90
        5
170
     1
 91
        0
 92
        0
 62
   257
 93
        1
300
CONTENTFORMAT
  1
CONTENTFORMAT_BEGIN
 90
        0
 91
        0
 92
        4
 93
        0
300

 40
0.0
140
1.0
 94
        2
 62
     0
340
11
144
4.5
309
CONTENTFORMAT_END
171
     1
301
MARGIN
  1
CELLMARGIN_BEGIN
 40
1.5
 40
1.5
 40
1.5
 40
1.5
 40
1.5
 40
1.5
309
CELLMARGIN_END
 94
        6
 95
        1
302
GRIDFORMAT
  1
GRIDFORMAT_BEGIN
 90
        0
 91
        1
 62
     0
 92
       -2
340
14
 93
        0
 40
0.045
309
GRIDFORMAT_END
 95
        2
302
GRIDFORMAT
  1
GRIDFORMAT_BEGIN
 90
        0
 91
        1
 62
     0
 92
       -2
340
14
 93
        0
 40
0.045
309
GRIDFORMAT_END
 95
        4
302
GRIDFORMAT
  1
GRIDFORMAT_BEGIN
 90
        0
 91
        1
 62
     0
 92
       -2
340
14
 93
        0
 40
0.045
309
GRIDFORMAT_END
 95
        8
302
GRIDFORMAT
  1
GRIDFORMAT_BEGIN
 90
        0
 91
        1
 62
     0
 92
       -2
340
14
 93
        0
 40
0.045
309
GRIDFORMAT_END
 95
       16
302
GRIDFORMAT
  1
GRIDFORMAT_BEGIN
 90
        0
 91
        1
 62
     0
 92
       -2
340
14
 93
        0
 40
0.045
309
GRIDFORMAT_END
 95
       32
302
GRIDFORMAT
  1
GRIDFORMAT_BEGIN
 90
        0
 91
        1
 62
     0
 92
       -2
340
14
 93
        0
 40
0.045
309
GRIDFORMAT_END
309
TABLEFORMAT_END
  1
CELLSTYLE_BEGIN
 90
        3
 91
        2
300
_DATA
309
CELLSTYLE_END
  0
ENDSEC
  0
EOF
